<?xml version="1.0" encoding="UTF-8" standalone="no"?>
<!-- Created with Inkscape (http://www.inkscape.org/) -->

<svg
   xmlns:dc="http://purl.org/dc/elements/1.1/"
   xmlns:cc="http://creativecommons.org/ns#"
   xmlns:rdf="http://www.w3.org/1999/02/22-rdf-syntax-ns#"
   xmlns:svg="http://www.w3.org/2000/svg"
   xmlns="http://www.w3.org/2000/svg"
   xmlns:sodipodi="http://sodipodi.sourceforge.net/DTD/sodipodi-0.dtd"
   xmlns:inkscape="http://www.inkscape.org/namespaces/inkscape"
   width="210mm"
   height="297mm"
   viewBox="0 0 210 297"
   version="1.1"
   id="svg8"
   inkscape:version="0.92.2 5c3e80d, 2017-08-06"
   sodipodi:docname="FLO_coin_design_4.svg">
  <defs
     id="defs2" />
  <sodipodi:namedview
     id="base"
     pagecolor="#ffffff"
     bordercolor="#666666"
     borderopacity="1.0"
     inkscape:pageopacity="0.0"
     inkscape:pageshadow="2"
     inkscape:zoom="3.959798"
     inkscape:cx="583.81616"
     inkscape:cy="155.93898"
     inkscape:document-units="mm"
     inkscape:current-layer="layer1"
     showgrid="false"
     inkscape:window-width="2560"
     inkscape:window-height="1341"
     inkscape:window-x="0"
     inkscape:window-y="1"
     inkscape:window-maximized="1" />
  <metadata
     id="metadata5">
    <rdf:RDF>
      <cc:Work
         rdf:about="">
        <dc:format>image/svg+xml</dc:format>
        <dc:type
           rdf:resource="http://purl.org/dc/dcmitype/StillImage" />
        <dc:title></dc:title>
      </cc:Work>
    </rdf:RDF>
  </metadata>
  <g
     inkscape:label="Layer 1"
     inkscape:groupmode="layer"
     id="layer1">
    <path
       style="fill:#000000;stroke-width:0.0635"
       d="m 169.71852,288.69919 c -5.26449,-0.46587 -10.0325,-2.10618 -14.44625,-4.96986 -3.2079,-2.08131 -6.26086,-5.01223 -8.49766,-8.15794 -3.85798,-5.42564 -5.88348,-11.78131 -5.88348,-18.46137 0,-6.68006 2.0255,-13.03573 5.88348,-18.46137 1.41468,-1.98954 3.60004,-4.36375 5.38616,-5.85164 5.80454,-4.83534 12.7417,-7.37188 20.16125,-7.37188 6.14638,0 11.91654,1.72293 17.12644,5.11384 3.1431,2.04571 6.20762,4.99695 8.42097,8.10968 3.85798,5.42564 5.88348,11.78131 5.88348,18.46137 0,6.68006 -2.0255,13.03573 -5.88348,18.46137 -1.41468,1.98954 -3.60004,4.36375 -5.38616,5.85164 -4.65269,3.87581 -9.99581,6.26144 -15.875,7.08797 -2.00799,0.28229 -4.92576,0.36199 -6.88975,0.18819 z m 5.9055,-1.51741 c 4.98496,-0.61385 9.26543,-2.18356 13.29814,-4.87663 3.04565,-2.03391 5.84597,-4.79 7.97888,-7.85286 3.06712,-4.40439 4.86023,-9.43494 5.33278,-14.96102 0.14959,-1.74934 0.0791,-4.41574 -0.16789,-6.35 -0.98522,-7.71585 -4.98044,-14.80241 -11.13841,-19.75687 -3.90468,-3.14154 -8.68848,-5.27879 -13.68425,-6.11366 -1.83094,-0.30598 -2.49877,-0.35403 -4.92125,-0.35403 -2.42248,0 -3.09031,0.0481 -4.92125,0.35403 -8.19412,1.36937 -15.43516,6.09946 -20.06485,13.10703 -3.53044,5.34373 -5.25289,11.5891 -4.97808,18.04987 0.50945,11.97721 7.94054,22.44698 19.07393,26.87355 2.67478,1.06347 5.50709,1.70585 8.79475,1.99468 0.76427,0.0671 4.58088,-0.0135 5.3975,-0.11409 z m -6.7945,-1.13039 c -0.22696,-0.11028 -0.3981,-0.13862 -0.83184,-0.13774 l -0.54609,10e-4 0.16509,-0.13769 c 0.46614,-0.38878 1.12922,-0.48982 1.62414,-0.24747 0.31806,0.15574 0.4446,0.43771 0.25774,0.57434 -0.16808,0.1229 -0.3349,0.1098 -0.66904,-0.0526 z m 6.18896,0.0526 c -0.18686,-0.13664 -0.0603,-0.4186 0.25774,-0.57434 0.49609,-0.24292 1.15798,-0.14136 1.62664,0.24957 l 0.16759,0.1398 -0.51684,-0.006 c -0.40523,-0.005 -0.58794,0.025 -0.84611,0.13702 -0.38242,0.16594 -0.52088,0.17675 -0.68902,0.0538 z m -9.21057,-0.21657 c -0.41227,-0.32987 -0.60331,-0.54319 -0.86366,-0.96436 -0.27084,-0.43815 -0.32513,-0.56452 -0.59812,-1.39229 -0.27262,-0.82663 -0.51607,-1.23996 -1.00936,-1.7137 -0.42001,-0.40337 -0.92879,-0.64051 -1.37418,-0.64051 -0.21609,0 -0.30934,-0.046 -0.57219,-0.28234 -0.4436,-0.39884 -0.86887,-0.54316 -1.60049,-0.54316 -0.67878,0 -1.00978,0.0841 -1.8918,0.48048 -1.00727,0.4527 -1.87303,0.58078 -2.62584,0.38846 -0.31069,-0.0794 -0.32271,-0.0915 -0.56053,-0.5669 -0.34165,-0.68294 -0.46248,-1.40232 -0.3674,-2.18746 0.14156,-1.169 0.0746,-1.89964 -0.23445,-2.55958 -0.18136,-0.38723 -0.65474,-0.88754 -0.95901,-1.01357 -0.14844,-0.0615 -0.24477,-0.18096 -0.38816,-0.48141 -0.30597,-0.64109 -0.88983,-1.09153 -1.74437,-1.34575 -0.20003,-0.0595 -0.65787,-0.10076 -1.24128,-0.11185 -0.50839,-0.01 -1.09444,-0.0518 -1.30233,-0.0935 -0.46893,-0.0942 -1.34031,-0.5049 -1.55272,-0.73184 -0.14789,-0.15801 -0.15871,-0.21376 -0.15821,-0.81522 6.2e-4,-0.74428 0.14466,-1.28804 0.50746,-1.91561 0.72171,-1.24842 0.8852,-1.74089 0.84409,-2.54263 -0.0274,-0.53468 -0.17399,-0.94291 -0.4623,-1.28762 -0.11343,-0.13562 -0.14861,-0.27357 -0.17294,-0.67825 -0.0378,-0.6287 -0.19892,-0.9904 -0.66585,-1.49475 -0.4131,-0.44619 -0.77628,-0.68569 -1.52514,-1.00576 -0.59658,-0.25498 -1.21273,-0.6402 -1.4738,-0.92142 -0.19966,-0.21506 -0.11445,-0.21552 0.10909,-5.7e-4 0.28449,0.27354 0.83382,0.60446 1.4176,0.85397 1.41431,0.60449 2.20115,1.51417 2.22366,2.57082 0.007,0.32459 0.0395,0.47601 0.12263,0.56923 0.0623,0.0698 0.19364,0.28416 0.29194,0.47625 0.15158,0.29619 0.1821,0.44179 0.20089,0.95846 0.0266,0.73094 -0.10636,1.24734 -0.49709,1.93079 -0.52938,0.92596 -0.70636,1.34704 -0.80403,1.91305 -0.1314,0.76141 -0.0776,1.17172 0.18237,1.39045 0.57398,0.48298 1.44259,0.72827 2.58441,0.72985 0.43971,6.3e-4 0.9853,0.0405 1.21243,0.0887 0.90703,0.1923 1.63381,0.72006 1.98049,1.43814 0.10682,0.22128 0.2327,0.3815 0.33708,0.42905 0.50741,0.2312 0.96034,0.80672 1.18061,1.50016 0.15812,0.49783 0.18232,1.07956 0.0941,2.26334 -0.0677,0.90815 0.0121,1.39345 0.33533,2.03942 l 0.23142,0.46255 0.4445,0.0852 c 0.77367,0.14833 1.35965,0.027 2.83097,-0.58596 1.25557,-0.52312 2.35157,-0.43806 3.14884,0.24437 0.19526,0.16714 0.33584,0.22852 0.59845,0.26129 1.09971,0.13724 2.06249,1.14916 2.44295,2.56766 0.20119,0.75007 0.52269,1.31864 1.04996,1.85683 0.4155,0.42411 0.5127,0.49257 0.6985,0.49198 0.69953,-0.002 1.69314,-0.57176 2.34012,-1.34136 0.65305,-0.77682 1.28339,-1.24462 1.95769,-1.45289 0.49595,-0.15318 0.87097,-0.15938 1.35898,-0.0224 0.34151,0.0958 0.39707,0.0958 0.73858,0 0.48801,-0.13693 0.86303,-0.13073 1.35898,0.0224 0.6743,0.20827 1.30464,0.67607 1.95769,1.45289 0.64698,0.7696 1.64059,1.33913 2.34012,1.34136 0.1858,5.7e-4 0.283,-0.0679 0.6985,-0.49198 0.52727,-0.53819 0.84877,-1.10676 1.04996,-1.85683 0.37903,-1.41315 1.34739,-2.43094 2.44295,-2.56766 0.26261,-0.0328 0.40319,-0.0942 0.59845,-0.26129 0.79727,-0.68243 1.89327,-0.76749 3.14884,-0.24437 1.47132,0.613 2.0573,0.73429 2.83097,0.58596 l 0.4445,-0.0852 0.23142,-0.46255 c 0.3232,-0.64597 0.40299,-1.13127 0.33533,-2.03942 -0.0882,-1.18378 -0.064,-1.76551 0.0941,-2.26334 0.22027,-0.69344 0.6732,-1.26896 1.18061,-1.50016 0.10438,-0.0476 0.23026,-0.20777 0.33708,-0.42905 0.34668,-0.71808 1.07346,-1.24584 1.98049,-1.43814 0.22713,-0.0482 0.77272,-0.0881 1.21243,-0.0887 1.14182,-0.002 2.01043,-0.24687 2.58441,-0.72985 0.25995,-0.21873 0.31377,-0.62904 0.18237,-1.39045 -0.0977,-0.56601 -0.27465,-0.98709 -0.80403,-1.91305 -0.39073,-0.68345 -0.52368,-1.19985 -0.49709,-1.93079 0.0188,-0.51667 0.0493,-0.66227 0.20089,-0.95846 0.0983,-0.19209 0.22968,-0.4064 0.29194,-0.47625 0.0831,-0.0932 0.11571,-0.24464 0.12263,-0.56923 0.0225,-1.05665 0.80935,-1.96633 2.22365,-2.57082 0.62404,-0.26671 1.14855,-0.58884 1.45213,-0.89181 0.11351,-0.11328 0.20638,-0.1796 0.20638,-0.14738 0,0.084 -0.36163,0.4117 -0.72135,0.65363 -0.16973,0.11416 -0.56631,0.3177 -0.8813,0.45233 -0.75183,0.32134 -1.11461,0.56041 -1.5281,1.00703 -0.46693,0.50435 -0.62806,0.86604 -0.66585,1.49475 -0.0243,0.40468 -0.0595,0.54262 -0.17294,0.67824 -0.28831,0.34472 -0.43488,0.75295 -0.4623,1.28763 -0.0411,0.80174 0.12238,1.2942 0.84409,2.54263 0.3628,0.62757 0.50684,1.17133 0.50746,1.91561 5.1e-4,0.60146 -0.0103,0.6572 -0.15821,0.81521 -0.21241,0.22694 -1.08379,0.63765 -1.55272,0.73184 -0.20789,0.0418 -0.79394,0.0838 -1.30233,0.0935 -0.58341,0.0111 -1.04125,0.0524 -1.24128,0.11186 -0.85454,0.25422 -1.4384,0.70465 -1.74437,1.34575 -0.14339,0.30044 -0.23972,0.41992 -0.38816,0.4814 -0.30427,0.12604 -0.77765,0.62634 -0.95901,1.01358 -0.30909,0.65993 -0.37601,1.39058 -0.23445,2.55958 0.0951,0.78514 -0.0257,1.50452 -0.3674,2.18745 -0.23782,0.47537 -0.24984,0.48753 -0.56053,0.5669 -0.75281,0.19233 -1.61857,0.0642 -2.62584,-0.38846 -0.88202,-0.39642 -1.21302,-0.48049 -1.8918,-0.48049 -0.73162,0 -1.15689,0.14432 -1.60049,0.54316 -0.26285,0.23633 -0.3561,0.28234 -0.57219,0.28234 -0.44539,0 -0.95417,0.23714 -1.37418,0.64051 -0.49709,0.47739 -0.73693,0.8875 -1.01803,1.74074 -0.35465,1.07653 -0.66092,1.61944 -1.1872,2.10455 -0.49944,0.46037 -0.56495,0.48774 -0.96732,0.40421 -0.77755,-0.16142 -1.58424,-0.70769 -2.31874,-1.5702 -0.44125,-0.51815 -1.17444,-1.04472 -1.65223,-1.18661 -0.56186,-0.16685 -0.83086,-0.17763 -1.31502,-0.0527 -0.44842,0.11571 -0.46758,0.11561 -0.96079,-0.005 -0.48037,-0.1175 -0.52473,-0.11832 -0.97569,-0.018 -0.79865,0.17769 -1.26918,0.51115 -2.32142,1.64518 -0.60381,0.65076 -1.36685,1.09546 -2.08442,1.21481 -0.23662,0.0394 -0.28673,0.0212 -0.5715,-0.20661 z m 4.38686,0.16846 c -0.0699,-0.0384 -0.22701,-0.16473 -0.34925,-0.28072 -0.29532,-0.28023 -0.63613,-0.41453 -1.17475,-0.46292 l -0.4445,-0.0399 0.254,-0.15875 c 0.2159,-0.13494 0.3302,-0.15875 0.762,-0.15875 0.58561,0 0.98937,0.16192 1.30764,0.5244 0.2278,0.25945 0.23084,0.35077 0.0173,0.51874 -0.19157,0.15069 -0.20103,0.15216 -0.37244,0.0579 z m 0.97347,-0.006 c -0.0542,-0.0437 -0.18583,-0.20959 -0.29251,-0.36875 -0.43018,-0.6418 -0.97159,-0.94604 -1.69261,-0.95116 l -0.32185,-0.002 0.18475,-0.15105 c 0.37972,-0.31046 1.02199,-0.36683 1.51486,-0.13294 0.5191,0.24632 1.18964,0.98498 1.18964,1.31048 0,0.29123 -0.36052,0.47431 -0.58228,0.2957 z m 1.73941,-0.0195 c -0.29727,-0.20822 -0.10027,-0.67046 0.51749,-1.21423 0.16336,-0.14379 0.40231,-0.31141 0.53102,-0.37248 0.49287,-0.23388 1.13514,-0.17752 1.51486,0.13294 l 0.18475,0.15105 -0.32185,0.002 c -0.72102,0.005 -1.26243,0.30936 -1.69261,0.95115 -0.31424,0.46882 -0.46234,0.53932 -0.73366,0.34928 z m 1.04218,-0.0328 c -0.21354,-0.16797 -0.2105,-0.25929 0.0173,-0.51874 0.31827,-0.36248 0.72203,-0.5244 1.30764,-0.5244 0.4318,0 0.5461,0.0238 0.762,0.15875 l 0.254,0.15875 -0.4445,0.0399 c -0.53931,0.0485 -0.87988,0.18287 -1.17475,0.46366 -0.1951,0.18579 -0.44526,0.35366 -0.52701,0.35366 -0.0151,0 -0.10265,-0.0592 -0.19468,-0.13161 z m -2.22235,-0.6581 c -0.74955,-0.94583 -1.12188,-1.17671 -1.90268,-1.17986 l -0.26503,-0.001 0.2216,-0.1418 c 0.1862,-0.11916 0.30792,-0.14131 0.762,-0.13867 0.60972,0.004 0.90553,0.10727 1.41352,0.49566 l 0.30163,0.23061 0.30162,-0.23061 c 0.508,-0.38839 0.80381,-0.49212 1.41353,-0.49566 0.45408,-0.003 0.5758,0.0195 0.762,0.13867 l 0.2216,0.1418 -0.26503,0.001 c -0.78242,0.003 -1.16697,0.24245 -1.90169,1.18337 -0.24,0.30736 -0.46267,0.5322 -0.52705,0.5322 -0.064,0 -0.29249,-0.22841 -0.53602,-0.53571 z m -5.71845,0.30473 c -0.12338,-0.0838 -0.25687,-0.21323 -0.29663,-0.28752 -0.0663,-0.12393 -0.0599,-0.13118 0.0778,-0.0878 0.28621,0.0901 0.91287,0.2227 1.07083,0.22655 0.15724,0.004 0.15694,0.005 -0.0315,0.10678 -0.36595,0.19797 -0.57522,0.20869 -0.8205,0.042 z m 12.05974,0.10482 c -0.10478,-0.0234 -0.27379,-0.0865 -0.37558,-0.14011 l -0.18508,-0.0975 0.37558,-0.0467 c 0.20657,-0.0257 0.49973,-0.0888 0.65148,-0.14019 0.15174,-0.0514 0.28787,-0.0815 0.30251,-0.0668 0.0474,0.0474 -0.21085,0.32896 -0.39714,0.43287 -0.11937,0.0666 -0.24632,0.0866 -0.37177,0.0585 z m -13.2081,-0.42509 c -0.27817,-0.21123 -0.68126,-0.33775 -1.0761,-0.33775 -0.40846,0 -0.73355,-0.15246 -0.73355,-0.34402 0,-0.16653 0.26163,-0.32286 0.53058,-0.31702 0.57264,0.0124 1.06985,0.31551 1.31909,0.80406 0.14683,0.2878 0.13815,0.33003 -0.04,0.19473 z m 14.63685,0.0768 c 0,-0.12332 0.27843,-0.54984 0.46706,-0.71546 0.39978,-0.351 1.10993,-0.47814 1.36775,-0.24486 0.17638,0.15959 0.16863,0.25508 -0.0336,0.41417 -0.12869,0.10123 -0.25884,0.13161 -0.56375,0.13161 -0.40525,0 -0.74974,0.10667 -1.06282,0.32909 -0.096,0.0682 -0.17462,0.10669 -0.17462,0.0854 z m -13.45657,-0.20608 c -0.25577,-0.0903 -0.88281,-0.62225 -0.81429,-0.69076 0.0159,-0.0159 0.15576,0.0255 0.31082,0.092 0.15506,0.0665 0.40914,0.14062 0.56461,0.16478 0.15547,0.0242 0.37617,0.0729 0.49044,0.10838 0.11426,0.0354 0.40001,0.0857 0.635,0.11162 l 0.42724,0.0472 -0.28575,0.13655 c -0.34409,0.16442 -0.91168,0.17737 -1.32807,0.0303 z m 11.10707,-0.0303 -0.28575,-0.13655 0.42724,-0.0472 c 0.23499,-0.026 0.52074,-0.0762 0.635,-0.11162 0.11427,-0.0354 0.33497,-0.0842 0.49044,-0.10838 0.15547,-0.0242 0.40955,-0.0983 0.56461,-0.16478 0.15506,-0.0665 0.29494,-0.10785 0.31082,-0.092 0.0159,0.0159 -0.0972,0.15502 -0.25139,0.30918 -0.48469,0.48468 -1.29629,0.63545 -1.89097,0.35129 z m -10.40506,-0.43356 c -0.16162,-0.0733 -0.41365,-0.12561 -0.60567,-0.12561 -0.43142,0 -0.83285,-0.2051 -1.10343,-0.56377 -0.11535,-0.1529 -0.20118,-0.28656 -0.19073,-0.29701 0.0104,-0.0104 0.17585,0.0351 0.36757,0.10132 0.38116,0.13156 0.97481,0.16086 1.23729,0.0611 0.14199,-0.054 0.20151,-0.0355 0.40101,0.12448 0.31014,0.24872 0.70969,0.38296 1.14713,0.38542 l 0.35714,0.002 -0.17473,0.15379 c -0.34141,0.30049 -0.96957,0.36976 -1.43558,0.15831 z m 9.93458,0.0344 c -0.13652,-0.0487 -0.30718,-0.1474 -0.37923,-0.21946 l -0.13101,-0.13101 h 0.35538 c 0.43417,0 0.83428,-0.13394 1.14536,-0.38341 0.1995,-0.16 0.25902,-0.17847 0.40101,-0.12448 0.26248,0.0998 0.85613,0.0705 1.23729,-0.0611 0.19172,-0.0662 0.35712,-0.11177 0.36757,-0.10132 0.0104,0.0104 -0.0754,0.14411 -0.19073,0.29701 -0.27058,0.35867 -0.67201,0.56377 -1.10343,0.56377 -0.19202,0 -0.44405,0.0523 -0.60567,0.12561 -0.32249,0.14633 -0.74515,0.15958 -1.09654,0.0344 z m -12.45177,-0.38381 c -0.10478,-0.0476 -0.34161,-0.11896 -0.52631,-0.1586 -0.29351,-0.063 -0.38505,-0.0555 -0.7267,0.0599 -0.4804,0.16224 -0.63384,0.1654 -0.76915,0.0159 -0.43393,-0.47949 0.4922,-0.88345 1.40437,-0.61256 0.34773,0.10326 0.62935,0.30579 0.8436,0.60669 0.14744,0.20704 0.0871,0.23075 -0.22581,0.0886 z m 15.83969,-0.0886 c 0.31276,-0.43924 0.85158,-0.70351 1.43436,-0.70351 0.696,0 1.14915,0.40676 0.80258,0.72041 -0.15155,0.13715 -0.29247,0.13255 -0.74706,-0.0244 -0.41614,-0.14367 -0.66515,-0.12847 -1.20057,0.0733 -0.41979,0.15818 -0.44475,0.1525 -0.28931,-0.0658 z m -7.91585,3.8e-4 c -0.12427,-0.19898 -0.83371,-0.50461 -1.35159,-0.58226 -0.26194,-0.0393 -0.48778,-0.0823 -0.50187,-0.0957 -0.0141,-0.0133 0.0845,-0.0703 0.21904,-0.12649 0.34706,-0.14501 1.00012,-0.13408 1.40996,0.0236 l 0.33337,0.12826 0.33337,-0.12826 c 0.42208,-0.16239 1.06654,-0.16935 1.41608,-0.0153 l 0.2508,0.11053 -0.58716,0.11379 c -0.59895,0.11607 -1.18079,0.37423 -1.3101,0.58129 -0.0887,0.142 -0.11812,0.14068 -0.2119,-0.009 z m -4.65359,-0.12827 c -0.21982,-0.0671 -0.68237,-0.30766 -0.72537,-0.37722 -0.0195,-0.0316 -0.27424,-0.0425 -0.56605,-0.0243 -0.6837,0.0427 -1.09815,-0.0844 -1.44649,-0.4433 -0.34384,-0.3543 -0.3269,-0.45766 0.0478,-0.2919 0.42474,0.18788 0.92775,0.21158 1.38205,0.0651 0.33377,-0.10761 0.40577,-0.11146 0.65901,-0.0353 0.15636,0.0471 0.4065,0.19821 0.55587,0.3359 0.30696,0.28294 0.77039,0.44934 1.25142,0.44934 0.36458,0 0.35232,0.0815 -0.039,0.25922 -0.27035,0.12276 -0.821,0.15346 -1.11929,0.0624 z m 8.40571,-0.0584 c -0.39127,-0.18364 -0.40306,-0.26321 -0.039,-0.26321 0.48103,0 0.94446,-0.1664 1.25142,-0.44934 0.14937,-0.13769 0.39951,-0.28884 0.55587,-0.3359 0.25324,-0.0762 0.32524,-0.0724 0.65901,0.0353 0.4543,0.14645 0.95731,0.12275 1.38205,-0.0651 0.37473,-0.16576 0.39167,-0.0624 0.0478,0.2919 -0.34834,0.35894 -0.76279,0.48596 -1.44649,0.4433 -0.29181,-0.0182 -0.54662,-0.007 -0.56624,0.0246 -0.0196,0.0317 -0.18366,0.13307 -0.36455,0.22517 -0.44621,0.2272 -1.10603,0.26881 -1.47992,0.0933 z m -14.62871,-0.19971 c -0.35725,-0.35725 0.10322,-0.80262 1.09161,-1.05584 0.45935,-0.11768 0.76276,-0.0902 1.16727,0.10558 0.25791,0.12485 0.66212,0.55434 0.66212,0.70353 0,0.0284 -0.13573,-0.008 -0.30163,-0.0807 -0.20611,-0.0905 -0.44237,-0.13388 -0.74612,-0.13696 -0.45246,-0.005 -0.5397,0.0259 -1.397,0.48797 -0.24791,0.13362 -0.32279,0.12992 -0.47625,-0.0235 z m 21.49475,0.0235 c -0.8573,-0.46208 -0.94454,-0.49256 -1.397,-0.48797 -0.30375,0.003 -0.54001,0.0464 -0.74613,0.13696 -0.16589,0.0729 -0.30162,0.10918 -0.30162,0.0807 0,-0.14919 0.40421,-0.57868 0.66212,-0.70353 0.40451,-0.19582 0.70792,-0.22326 1.16727,-0.10558 0.98839,0.25322 1.44886,0.69859 1.09161,1.05584 -0.15346,0.15346 -0.22834,0.15716 -0.47625,0.0235 z m -14.51016,-0.20633 c -0.53652,-0.17513 -0.7399,-0.42109 -0.53522,-0.64726 0.14853,-0.16412 0.32117,-0.15432 0.76585,0.0435 0.32744,0.14564 0.43,0.1617 0.83921,0.13145 0.44077,-0.0326 0.46071,-0.0284 0.36576,0.0765 -0.27169,0.30021 -1.06143,0.51795 -1.4356,0.39582 z m 7.24827,-0.0135 c -0.22806,-0.0694 -0.67196,-0.33003 -0.73453,-0.43126 -0.0237,-0.0383 0.13476,-0.0485 0.42329,-0.0272 0.40349,0.0298 0.50776,0.0133 0.83416,-0.13184 0.20516,-0.0913 0.43648,-0.16592 0.51403,-0.16592 0.19482,0 0.37355,0.2105 0.32055,0.37751 -0.0935,0.2947 -0.89696,0.5188 -1.3575,0.37866 z m -14.92206,-0.3593 c -0.0323,-0.0611 -0.10525,-0.29686 -0.16219,-0.52387 -0.32981,-1.31485 -0.50462,-1.5979 -1.18718,-1.92231 -0.3394,-0.16131 -0.34089,-0.16325 -0.15966,-0.20874 0.24064,-0.0604 0.73979,0.0586 1.03855,0.24758 0.3278,0.20734 0.75084,0.67978 0.91941,1.02675 0.10002,0.20585 0.1681,0.27777 0.2377,0.25106 0.28564,-0.10961 0.77233,-0.16805 1.12516,-0.1351 0.64211,0.06 1.11449,0.32837 1.3744,0.78095 0.0227,0.0396 -0.12261,0.005 -0.32296,-0.0779 -0.62881,-0.2586 -0.91159,-0.21991 -1.90013,0.25993 -0.46767,0.22701 -0.86249,0.41275 -0.87737,0.41275 -0.0149,0 -0.0535,-0.05 -0.0857,-0.11113 z m 22.37445,-0.30433 c -0.96399,-0.47598 -1.25872,-0.51612 -1.88828,-0.25722 -0.20035,0.0824 -0.34569,0.11744 -0.32296,0.0779 0.25991,-0.45258 0.73229,-0.72099 1.3744,-0.78095 0.35283,-0.0329 0.83952,0.0255 1.12516,0.1351 0.0696,0.0267 0.13768,-0.0452 0.2377,-0.25106 0.16857,-0.34697 0.59161,-0.81941 0.91941,-1.02675 0.29876,-0.18899 0.79791,-0.30797 1.03855,-0.24758 0.18123,0.0455 0.17974,0.0474 -0.15966,0.20874 -0.68256,0.32441 -0.85737,0.60746 -1.18718,1.92231 -0.11082,0.44182 -0.19333,0.63738 -0.26625,0.63107 -0.025,-0.002 -0.41687,-0.18735 -0.87089,-0.41153 z m -23.18454,0.22625 c -0.15814,-0.0639 -0.2001,-0.15528 -0.31349,-0.68264 -0.0468,-0.21759 -0.13142,-0.49333 -0.1881,-0.61276 -0.14461,-0.30474 -0.51491,-0.65854 -0.88837,-0.84877 -0.27462,-0.13989 -0.30035,-0.16845 -0.1905,-0.21146 0.0698,-0.0274 0.2237,-0.0517 0.34188,-0.0542 0.74066,-0.0154 1.36323,0.55552 1.66574,1.52747 0.15571,0.50032 0.15107,0.6014 -0.0362,0.78871 -0.16925,0.16924 -0.19097,0.17444 -0.39093,0.0937 z m 24.58436,-0.0879 c -0.19321,-0.19322 -0.19841,-0.29167 -0.0419,-0.79442 0.30251,-0.97195 0.92508,-1.54285 1.66574,-1.52747 0.11818,0.002 0.27203,0.0268 0.34188,0.0542 0.10985,0.043 0.0841,0.0716 -0.1905,0.21146 -0.37346,0.19023 -0.74376,0.54403 -0.88837,0.84877 -0.0567,0.11943 -0.14082,0.39771 -0.18699,0.61838 -0.0892,0.42655 -0.19506,0.67573 -0.28693,0.67573 -0.0308,0 -0.1,0.0169 -0.15369,0.0375 -0.0576,0.0221 -0.16389,-0.0288 -0.2592,-0.12411 z m -19.42397,-0.19647 c -0.27839,-0.0993 -0.48737,-0.27547 -0.74871,-0.63128 -0.25533,-0.34764 -0.23782,-0.46822 0.0375,-0.25823 0.28461,0.21709 0.72587,0.34713 1.17786,0.34713 0.26915,0 0.38782,0.0296 0.46616,0.11612 0.35128,0.38817 -0.25834,0.66674 -0.93281,0.42626 z m 13.71599,-0.0235 c -0.25261,-0.27914 -0.0321,-0.51888 0.47719,-0.51888 0.44168,0 0.8844,-0.13171 1.16683,-0.34713 0.27498,-0.20974 0.29254,-0.0904 0.0383,0.2605 -0.37022,0.51108 -0.75269,0.72051 -1.31723,0.72128 -0.17162,2.5e-4 -0.29577,-0.0391 -0.36513,-0.11577 z m -19.83128,-0.14901 c -0.0791,-0.0383 -0.21681,-0.24801 -0.32779,-0.49926 -0.20184,-0.45698 -0.4594,-0.70313 -0.97267,-0.92958 -0.13522,-0.0597 -0.24585,-0.13155 -0.24585,-0.15975 0,-0.0282 0.17176,-0.0513 0.38169,-0.0513 0.49173,0 0.85514,0.16923 1.23463,0.57494 0.43795,0.4682 0.53994,0.85482 0.27455,1.04071 -0.16122,0.11292 -0.16128,0.11293 -0.34456,0.0242 z m 26.53482,-0.0242 c -0.26539,-0.18589 -0.1634,-0.57251 0.27455,-1.04071 0.37949,-0.40571 0.7429,-0.57494 1.23463,-0.57494 0.20993,0 0.38169,0.0231 0.38169,0.0513 0,0.0282 -0.11063,0.10009 -0.24585,0.15975 -0.51307,0.22637 -0.77084,0.47264 -0.97244,0.92905 -0.12685,0.28721 -0.24341,0.45651 -0.34665,0.50355 -0.19069,0.0869 -0.15792,0.0897 -0.32593,-0.028 z m -27.94661,-0.6607 c -0.30919,-0.31015 -0.44721,-0.39907 -0.76386,-0.49212 -0.21257,-0.0625 -0.38652,-0.13144 -0.38657,-0.15327 -1.3e-4,-0.0599 0.35682,-0.11906 0.71805,-0.11906 0.71845,0 1.51618,0.72478 1.17416,1.0668 -0.16029,0.16029 -0.3629,0.0777 -0.74178,-0.30235 z m 28.96118,0.30235 c -0.12971,-0.12971 -0.0847,-0.3542 0.11709,-0.58403 0.26394,-0.30061 0.6628,-0.48277 1.05707,-0.48277 0.36123,0 0.71819,0.0592 0.71805,0.11906 -5e-5,0.0218 -0.174,0.0908 -0.38657,0.15327 -0.31665,0.0931 -0.45467,0.18197 -0.76386,0.49212 -0.37888,0.38006 -0.58149,0.46264 -0.74178,0.30235 z m -23.41245,-0.38121 c -0.55273,-0.17264 -1.02401,-0.20417 -1.3834,-0.0925 l -0.3039,0.0944 -0.12617,-0.26842 c -0.15858,-0.33737 -0.5558,-0.72801 -1.02804,-1.01102 -0.28742,-0.17224 -0.33911,-0.22552 -0.24315,-0.25061 0.16642,-0.0435 0.65687,0.0539 0.90892,0.18061 0.11398,0.0573 0.33583,0.22616 0.49299,0.37528 0.25712,0.24395 0.32576,0.275 0.68506,0.30995 0.50231,0.0489 0.9518,0.23987 1.22311,0.51979 0.11572,0.11939 0.19806,0.22709 0.18299,0.23933 -0.0151,0.0122 -0.19886,-0.0313 -0.40841,-0.0968 z m 18.19275,0.0822 c 0,-0.10144 0.43364,-0.45302 0.70846,-0.5744 0.16264,-0.0718 0.47697,-0.14825 0.6985,-0.16981 0.36326,-0.0353 0.43083,-0.0658 0.68854,-0.31031 0.15716,-0.14912 0.37901,-0.31799 0.49299,-0.37528 0.25205,-0.12668 0.7425,-0.22414 0.90892,-0.18061 0.096,0.0251 0.0443,0.0784 -0.24315,0.25061 -0.47224,0.28301 -0.86946,0.67365 -1.02804,1.01102 l -0.12617,0.26842 -0.3039,-0.0944 c -0.36194,-0.11242 -0.83554,-0.0798 -1.40192,0.0964 -0.21683,0.0675 -0.39423,0.10273 -0.39423,0.0783 z m -25.62225,-1.21179 c -0.1397,-0.0202 -0.28992,-0.0589 -0.33383,-0.0861 -0.0985,-0.061 -0.23695,-0.32968 -0.29555,-0.57354 -0.0439,-0.18279 -0.0437,-0.18272 0.26096,0.0859 0.16771,0.14786 0.43065,0.33287 0.58433,0.41114 0.21747,0.11076 0.25266,0.14863 0.15875,0.17082 -0.0664,0.0157 -0.23496,0.012 -0.37466,-0.008 z m 33.09055,0.002 c -0.0819,-0.0287 -0.0421,-0.0701 0.16472,-0.17139 0.15,-0.0734 0.40994,-0.25493 0.57765,-0.40333 0.3043,-0.26929 0.30482,-0.26947 0.26096,-0.0869 -0.0581,0.24182 -0.19683,0.51244 -0.29323,0.57202 -0.11814,0.073 -0.5883,0.13235 -0.7101,0.0896 z m -32.65043,-0.24489 c -0.49342,-0.17058 -0.88444,-0.52967 -1.07599,-0.98811 -0.18022,-0.43134 -0.11135,-0.44986 0.29024,-0.0781 0.21154,0.19585 0.40845,0.35609 0.43759,0.35609 0.0291,0 0.19165,0.11461 0.36116,0.25468 0.16951,0.14008 0.43374,0.30263 0.58717,0.36122 0.2294,0.0876 0.25767,0.11491 0.15909,0.15361 -0.19451,0.0764 -0.41679,0.059 -0.75926,-0.0594 z m 31.825,0.0628 c -0.10008,-0.0421 -0.0738,-0.068 0.15909,-0.15695 0.15343,-0.0586 0.41766,-0.22114 0.58717,-0.36122 0.16951,-0.14007 0.33203,-0.25468 0.36116,-0.25468 0.0291,0 0.22605,-0.16024 0.43759,-0.35609 0.28738,-0.26606 0.38427,-0.32626 0.38323,-0.23812 -0.005,0.38159 -0.52458,1.03303 -0.98854,1.23827 -0.3132,0.13854 -0.7682,0.2009 -0.9397,0.12879 z m -31.04185,-0.20108 c -0.26291,-0.0792 -0.59474,-0.30149 -0.70802,-0.47436 -0.0556,-0.0849 -0.23613,-0.21408 -0.40112,-0.28706 -0.165,-0.073 -0.354,-0.18158 -0.42002,-0.24132 -0.19609,-0.17746 -0.40896,-0.59687 -0.45809,-0.90253 l -0.0459,-0.28575 0.31559,0.29483 c 0.37396,0.34936 0.60182,0.47565 1.01995,0.56533 0.27509,0.059 0.32206,0.0943 0.4198,0.31588 0.13131,0.29761 0.53318,0.66302 0.92781,0.84363 0.27238,0.12466 0.27832,0.13291 0.127,0.17635 -0.21333,0.0612 -0.5645,0.059 -0.77698,-0.005 z m 30.24098,0.009 c -0.15243,-0.0473 -0.14737,-0.0544 0.127,-0.18001 0.39463,-0.18061 0.7965,-0.54602 0.92781,-0.84363 0.0977,-0.22155 0.14471,-0.25689 0.4198,-0.31588 0.41813,-0.0897 0.64599,-0.21597 1.01995,-0.56533 l 0.31559,-0.29483 -0.0459,0.28575 c -0.0491,0.30566 -0.262,0.72507 -0.45809,0.90253 -0.066,0.0597 -0.25502,0.16833 -0.42002,0.24132 -0.16499,0.073 -0.34659,0.20383 -0.40356,0.29078 -0.24067,0.36731 -1.02555,0.62106 -1.48256,0.4793 z m -29.51211,-0.3578 c -0.33373,-0.14505 -0.63776,-0.40765 -0.84851,-0.7329 -0.16444,-0.25377 -0.24414,-0.31558 -0.48516,-0.37627 -0.72979,-0.18376 -1.24842,-0.6836 -1.36972,-1.32009 -0.0216,-0.1135 -0.0186,-0.20589 0.007,-0.2053 0.0253,5.7e-4 0.16021,0.11689 0.29975,0.25845 0.37622,0.38167 0.60449,0.49811 1.09797,0.56007 0.57606,0.0723 0.80287,0.23493 1.03509,0.74203 0.19336,0.42221 0.48972,0.72163 0.92228,0.93178 0.15329,0.0745 0.2787,0.15829 0.2787,0.18625 0,0.0854 -0.71688,0.0517 -0.93711,-0.044 z m 28.62311,0.044 c 0,-0.028 0.12541,-0.11177 0.2787,-0.18625 0.43256,-0.21015 0.72892,-0.50957 0.92228,-0.93178 0.23222,-0.5071 0.45903,-0.6697 1.03509,-0.74203 0.49348,-0.062 0.72175,-0.1784 1.09797,-0.56007 0.13954,-0.14156 0.27443,-0.25786 0.29975,-0.25845 0.0253,-5.7e-4 0.0283,0.0918 0.007,0.2053 -0.1213,0.63649 -0.63993,1.13633 -1.36972,1.32009 -0.24102,0.0607 -0.32072,0.1225 -0.48516,0.37627 -0.21523,0.33217 -0.52108,0.59297 -0.86286,0.73577 -0.23223,0.097 -0.92276,0.12783 -0.92276,0.0411 z m -27.90825,-0.25446 c -0.67246,-0.31771 -0.92889,-1.02819 -0.37109,-1.02819 0.0521,0 0.25826,0.15595 0.45809,0.34655 0.3753,0.35798 0.8133,0.60212 1.08457,0.60456 0.117,10e-4 0.13752,0.0195 0.0828,0.0742 -0.0401,0.0401 -0.28151,0.0841 -0.53657,0.0978 -0.36103,0.0195 -0.52003,-0.002 -0.71776,-0.095 z m 27.051,0.0695 c -0.2057,-0.0495 -0.26573,-0.14506 -0.0921,-0.14661 0.27128,-0.002 0.70928,-0.24658 1.08458,-0.60456 0.19983,-0.1906 0.40597,-0.34655 0.45809,-0.34655 0.211,0 0.29566,0.0803 0.29566,0.28049 0,0.24714 -0.29154,0.57233 -0.66675,0.74371 -0.2418,0.11044 -0.77503,0.14676 -1.0795,0.0735 z m -31.17223,-0.23708 c -0.16455,-0.30554 -0.34736,-0.46192 -0.80981,-0.69271 -0.43698,-0.21809 -0.59569,-0.45021 -0.43786,-0.64039 0.10241,-0.1234 0.39913,-0.12777 0.62543,-0.009 0.424,0.22213 0.72225,0.68726 0.80764,1.25954 0.0531,0.35573 -0.0207,0.38865 -0.1854,0.0828 z m 36.18756,-0.0828 c 0.0854,-0.57228 0.38364,-1.03741 0.80764,-1.25954 0.2263,-0.11856 0.52302,-0.11419 0.62543,0.009 0.15783,0.19018 -8.8e-4,0.4223 -0.43786,0.64039 -0.46245,0.23079 -0.64526,0.38717 -0.80981,0.69271 -0.16472,0.30588 -0.23847,0.27296 -0.1854,-0.0828 z m -36.356,-1.00552 c -0.32781,-0.34103 -0.67624,-0.51672 -1.12296,-0.56624 -0.60563,-0.0671 -0.88888,-0.36268 -0.599,-0.62502 0.34077,-0.30839 1.34721,0.0635 1.74877,0.64614 0.1573,0.22823 0.32382,0.77277 0.23632,0.77277 -0.0244,0 -0.14277,-0.10244 -0.26313,-0.22765 z m 36.46243,-0.0422 c 0.11053,-0.49714 0.50095,-0.91372 1.08333,-1.15593 0.32936,-0.13698 0.76475,-0.12828 0.89707,0.0179 0.25509,0.28187 -0.009,0.54733 -0.61003,0.61399 -0.44672,0.0495 -0.79515,0.22521 -1.12296,0.56624 -0.12036,0.12521 -0.23876,0.22765 -0.26313,0.22765 -0.0244,0 -0.0173,-0.12144 0.0157,-0.26988 z m -34.91916,-0.68451 c -0.47605,-0.27302 -0.7794,-0.82053 -0.77297,-1.39511 l 0.002,-0.15875 0.1078,0.15818 c 0.25251,0.37055 0.54607,0.63264 0.88684,0.79179 0.40465,0.18898 0.5227,0.30651 0.5227,0.52043 0,0.14099 -0.16201,0.27645 -0.3292,0.27525 -0.046,-3.1e-4 -0.23358,-0.0866 -0.41695,-0.19179 z m 32.98827,0.1238 c -0.12953,-0.0754 -0.14568,-0.30677 -0.0317,-0.45468 0.0437,-0.0567 0.24316,-0.17953 0.44333,-0.27301 0.34077,-0.15915 0.63433,-0.42124 0.88684,-0.79179 l 0.1078,-0.15818 0.002,0.15875 c 0.006,0.57458 -0.29692,1.12209 -0.77297,1.39511 -0.35753,0.20504 -0.46094,0.2252 -0.63503,0.1238 z m -34.54011,-0.2741 c -0.48812,-0.44945 -0.67473,-0.51369 -1.51201,-0.52051 -0.91386,-0.007 -0.87089,-3.2e-4 -0.95567,-0.15871 -0.19724,-0.36855 0.13988,-0.62909 0.81399,-0.62909 0.82988,0 1.46853,0.30115 1.75063,0.8255 0.12912,0.24001 0.28171,0.76784 0.21955,0.75948 -0.0103,-10e-4 -0.15273,-0.12589 -0.31649,-0.27667 z m 36.43211,0.0513 c 0.15245,-0.85643 0.87356,-1.35957 1.94856,-1.35957 0.67411,0 1.01123,0.26054 0.81399,0.62909 -0.0848,0.1584 -0.0418,0.15126 -0.95567,0.15871 -0.83983,0.007 -1.01389,0.0674 -1.53129,0.53256 l -0.31979,0.28752 z m -36.44402,-0.88993 c -0.10045,-0.12083 -0.31477,-0.29736 -0.47625,-0.39229 -0.29036,-0.17069 -0.30499,-0.17244 -1.32547,-0.15806 l -1.03188,0.0145 0.002,-0.26853 c 8.3e-4,-0.1477 0.0283,-0.38284 0.0609,-0.52254 0.0327,-0.1397 0.0785,-0.48634 0.10186,-0.77031 0.0384,-0.46776 0.0275,-0.54837 -0.11636,-0.85725 -0.0873,-0.18752 -0.25154,-0.43381 -0.3649,-0.54732 -0.22908,-0.22935 -0.15206,-0.27327 0.20786,-0.11851 0.51768,0.22259 0.96559,0.9691 1.036,1.72664 l 0.0414,0.44545 0.36579,0.0695 c 0.88573,0.16833 1.57283,0.73169 1.74763,1.43291 0.0578,0.23188 -0.0254,0.2137 -0.24814,-0.0542 z m 36.50266,0.0542 c 0.1748,-0.70122 0.8619,-1.26458 1.74764,-1.43291 l 0.36578,-0.0695 0.0414,-0.44545 c 0.0704,-0.75754 0.51832,-1.50405 1.03601,-1.72664 0.35991,-0.15476 0.43693,-0.11084 0.20786,0.11852 -0.11337,0.1135 -0.27758,0.35979 -0.36491,0.54731 -0.14385,0.30888 -0.15479,0.38949 -0.11635,0.85725 0.0233,0.28397 0.0692,0.63061 0.10185,0.77031 0.0327,0.1397 0.0601,0.37484 0.0609,0.52254 l 0.002,0.26853 -1.03187,-0.0145 c -1.01992,-0.0144 -1.03527,-0.0125 -1.32479,0.15766 -0.16111,0.0947 -0.38169,0.2733 -0.49019,0.39687 -0.23726,0.27023 -0.29272,0.28204 -0.23488,0.05 z m -36.57401,-0.84933 c -0.4357,-0.43732 -1.02575,-0.75404 -1.40475,-0.75404 -0.20646,0 -0.2145,-0.009 -0.2145,-0.24406 0,-0.44291 -0.2399,-1.01217 -0.65315,-1.54982 -0.22468,-0.29232 -0.12295,-0.31184 0.28314,-0.0543 0.34521,0.21893 0.56014,0.48682 0.78551,0.97909 0.12846,0.28059 0.2153,0.38416 0.37969,0.45285 0.43693,0.18256 0.91681,0.72671 1.0498,1.19041 0.0645,0.22498 0.014,0.22047 -0.22574,-0.0201 z m 25.698,0.13382 c -1.91686,-0.26542 -3.35612,-1.55461 -3.83068,-3.43124 -0.17805,-0.70408 -0.14411,-1.90072 0.0719,-2.53619 0.54296,-1.59708 1.76086,-2.71533 3.34629,-3.07247 0.64738,-0.14584 1.71121,-0.136 2.32712,0.0215 1.65324,0.42283 2.86747,1.64286 3.28728,3.30297 0.19044,0.75312 0.15128,1.91433 -0.0881,2.61117 -0.24509,0.71355 -0.57706,1.23432 -1.15199,1.80713 -0.57742,0.5753 -1.21459,0.94777 -1.98787,1.16206 -0.54564,0.1512 -1.42359,0.21127 -1.97402,0.13505 z m 1.91299,-1.69865 c 1.06641,-0.49903 1.70844,-1.56148 1.7165,-2.84046 0.009,-1.36653 -0.7118,-2.4825 -1.91297,-2.96335 -0.30081,-0.12042 -0.48401,-0.14575 -1.06202,-0.14684 -0.65932,-10e-4 -0.72323,0.0104 -1.1394,0.20747 -1.16309,0.55077 -1.74985,1.51346 -1.74985,2.87097 0,1.49281 0.75798,2.57115 2.12725,3.02636 0.16612,0.0552 0.486,0.0776 0.92458,0.0647 0.59566,-0.0176 0.71809,-0.042 1.09591,-0.21882 z m 9.05677,1.58496 c 0.13299,-0.4637 0.61287,-1.00785 1.0498,-1.19041 0.16439,-0.0687 0.25123,-0.17226 0.37969,-0.45285 0.22537,-0.49227 0.4403,-0.76016 0.78551,-0.97909 0.40609,-0.25754 0.50782,-0.23802 0.28314,0.0543 -0.41325,0.53765 -0.65315,1.10691 -0.65315,1.54982 0,0.23491 -0.008,0.24406 -0.2145,0.24406 -0.37817,0 -0.87336,0.26033 -1.37098,0.72074 -0.13777,0.12747 -0.26403,0.23176 -0.28057,0.23176 -0.0165,0 -0.007,-0.0803 0.0211,-0.17833 z m -30.66701,-2.52042 v -2.50825 h 3.01833 3.01833 l -0.018,0.71437 -0.018,0.71438 -2.20663,0.0167 -2.20662,0.0167 v 1.77717 1.77718 h -0.79375 -0.79375 z m 8.28419,2.42887 c -0.0167,-0.0437 -0.0229,-2.03676 -0.0139,-4.42912 l 0.0164,-4.34975 h 0.79375 0.79375 l 0.0164,3.69808 0.0164,3.69809 2.30137,0.0167 2.30136,0.0167 0.0179,0.71437 0.018,0.71438 h -3.11557 c -2.43396,0 -3.12221,-0.0174 -3.1459,-0.0794 z m -17.77644,-0.21444 c -0.11684,-0.11684 -0.11431,-0.20896 0.0282,-1.02627 0.10066,-0.57732 -0.0361,-1.03375 -0.45158,-1.50694 -0.10877,-0.12388 -0.18031,-0.24269 -0.15898,-0.26402 0.0853,-0.0853 0.65954,0.20344 0.90353,0.45436 0.32255,0.33172 0.44178,0.71739 0.43407,1.4041 -0.007,0.66463 -0.15342,1.00112 -0.44664,1.02964 -0.12467,0.0121 -0.23936,-0.0216 -0.30859,-0.0909 z m 43.30733,-0.0445 c -0.1362,-0.20787 -0.24323,-0.84422 -0.20167,-1.19912 0.061,-0.52135 0.18777,-0.83 0.4526,-1.10231 0.24129,-0.24809 0.81588,-0.53604 0.90061,-0.45131 0.0213,0.0213 -0.0502,0.14014 -0.15898,0.26402 -0.41546,0.47319 -0.55224,0.92962 -0.45158,1.50694 0.14156,0.81193 0.14459,0.90987 0.0316,1.02284 -0.15814,0.15814 -0.45608,0.13677 -0.5726,-0.0411 z m -44.00323,-0.75532 c -0.0659,-0.0941 -0.0988,-0.28482 -0.0988,-0.57219 0,-0.49514 -0.13261,-0.8365 -0.48479,-1.24795 -0.16254,-0.18989 -0.19568,-0.26123 -0.12137,-0.26123 0.1636,0 0.55969,0.18444 0.72246,0.33641 0.51555,0.48133 0.78745,1.61281 0.44049,1.83303 -0.14883,0.0945 -0.35831,0.0542 -0.45794,-0.0881 z m 44.81036,0.0881 c -0.34696,-0.22022 -0.0751,-1.3517 0.44049,-1.83303 0.16277,-0.15197 0.55886,-0.33641 0.72246,-0.33641 0.0743,0 0.0412,0.0713 -0.12137,0.26123 -0.35218,0.41145 -0.48479,0.75281 -0.48479,1.24795 0,0.28737 -0.0329,0.47811 -0.0988,0.57219 -0.0996,0.14225 -0.30911,0.18253 -0.45794,0.0881 z m -45.59909,-0.82732 c -0.0651,-0.0651 -0.17097,-0.28656 -0.23524,-0.49212 -0.0892,-0.28515 -0.19699,-0.45417 -0.45486,-0.713 l -0.33799,-0.33925 0.27161,0.0451 c 0.67648,0.11242 1.25586,0.69054 1.25586,1.25314 0,0.35487 -0.26166,0.48382 -0.49938,0.2461 z m 46.42258,0.0422 c -0.11465,-0.11465 -0.0917,-0.46994 0.048,-0.74384 0.20961,-0.41088 0.64309,-0.71639 1.13164,-0.79758 l 0.27161,-0.0451 -0.34679,0.34679 c -0.2716,0.2716 -0.36972,0.42568 -0.45258,0.71072 -0.15177,0.52204 -0.43171,0.74923 -0.6519,0.52904 z m -44.46165,-1.74496 c -0.34403,-0.14978 -0.56594,-0.32989 -0.73354,-0.59538 -0.32213,-0.5103 -0.24415,-1.04987 0.13236,-0.91576 0.20262,0.0722 0.23592,0.12272 0.41738,0.63355 0.099,0.27876 0.22032,0.46194 0.45201,0.68262 0.31357,0.29867 0.31489,0.30158 0.13483,0.29645 -0.10001,-0.003 -0.28138,-0.0485 -0.40304,-0.10148 z m 42.65569,-0.19497 c 0.23169,-0.22068 0.35299,-0.40386 0.45201,-0.68262 0.18146,-0.51083 0.21476,-0.56139 0.41738,-0.63355 0.54203,-0.19307 0.37581,0.8773 -0.19974,1.28621 -0.24532,0.17429 -0.63816,0.33159 -0.82811,0.33159 -0.14638,0 -0.13453,-0.0226 0.15846,-0.30163 z m -43.68926,-0.0762 c -0.43933,-0.27861 -0.80898,-0.93655 -0.80898,-1.4399 0,-0.11785 -0.0234,-0.21427 -0.0521,-0.21427 -0.14466,0 -0.59669,-0.49186 -0.76909,-0.83688 -0.19365,-0.38753 -0.23423,-0.66479 -0.15515,-1.06018 0.0384,-0.19184 0.15076,-0.28054 0.15086,-0.11907 1.3e-4,0.16391 0.37196,0.84769 0.5476,1.00695 0.10043,0.0911 0.30447,0.23229 0.45341,0.31384 0.38262,0.20949 0.52262,0.47665 0.52433,1.00059 0.002,0.48911 0.13568,0.84072 0.48148,1.26273 0.21888,0.26711 0.2206,0.27352 0.0736,0.27352 -0.0828,0 -0.28349,-0.0843 -0.44595,-0.18733 z m 44.61865,-0.0862 c 0.3458,-0.42201 0.47987,-0.77362 0.48148,-1.26273 0.002,-0.52394 0.14171,-0.7911 0.52433,-1.00059 0.14894,-0.0815 0.35298,-0.22278 0.45341,-0.31384 0.17564,-0.15926 0.5475,-0.84304 0.5476,-1.00695 1.3e-4,-0.16147 0.1125,-0.0728 0.15086,0.11907 0.0791,0.39539 0.0385,0.67265 -0.15515,1.06018 -0.1724,0.34502 -0.62443,0.83688 -0.76909,0.83688 -0.0286,0 -0.0521,0.0964 -0.0521,0.21427 0,0.27127 -0.13244,0.64879 -0.34667,0.98815 -0.18554,0.29391 -0.6761,0.63908 -0.90826,0.63908 -0.14704,0 -0.14532,-0.006 0.0736,-0.27352 z m -45.40797,0.0553 c -0.35758,-0.16648 -0.65686,-0.51362 -0.78796,-0.91394 -0.042,-0.12821 -0.17246,-0.34589 -0.28994,-0.48374 -0.25809,-0.30283 -0.36467,-0.66191 -0.3168,-1.06737 0.0596,-0.50532 0.13556,-0.56031 0.25928,-0.18783 0.13594,0.40927 0.46201,0.83828 0.75848,0.99795 0.21228,0.11432 0.23033,0.14646 0.2309,0.41119 7.4e-4,0.34058 0.21451,0.83293 0.50561,1.16447 0.17204,0.19594 0.1863,0.23387 0.0877,0.23335 -0.0647,-3.2e-4 -0.26602,-0.0697 -0.44729,-0.15408 z m 46.21011,-0.0793 c 0.28993,-0.33021 0.50478,-0.82395 0.5061,-1.16303 0.001,-0.26578 0.0186,-0.29575 0.25173,-0.42886 0.28905,-0.16505 0.6028,-0.58996 0.74606,-1.0104 0.11634,-0.34146 0.19227,-0.2758 0.25038,0.21651 0.0479,0.40546 -0.0587,0.76454 -0.3168,1.06737 -0.11748,0.13785 -0.24795,0.35553 -0.28994,0.48374 -0.1311,0.40032 -0.43038,0.74746 -0.78796,0.91394 -0.18127,0.0844 -0.38256,0.15374 -0.44729,0.15408 -0.0986,5.1e-4 -0.0843,-0.0374 0.0877,-0.23335 z m -46.83302,0.009 c -0.33222,-0.11269 -0.79349,-0.61362 -0.93694,-1.01747 -0.11685,-0.32898 -0.13804,-0.73382 -0.0497,-0.94875 0.0572,-0.13905 0.0578,-0.1381 0.1913,0.29661 0.0394,0.12821 0.15004,0.34253 0.24592,0.47625 0.0959,0.13373 0.21497,0.34315 0.26464,0.46539 0.0497,0.12224 0.20253,0.34428 0.33968,0.49342 0.13716,0.14915 0.23806,0.28232 0.22422,0.29594 -0.0138,0.0136 -0.13946,-0.014 -0.27916,-0.0614 z m 47.52975,0.0415 c 0,-0.026 0.0893,-0.13112 0.19853,-0.23369 0.10919,-0.10258 0.26067,-0.3151 0.33661,-0.47226 0.0759,-0.15716 0.2279,-0.42456 0.33768,-0.59422 0.10978,-0.16966 0.21884,-0.39826 0.24236,-0.508 0.0604,-0.28198 0.10584,-0.33697 0.16131,-0.19531 0.0843,0.21519 0.0611,0.62106 -0.0537,0.94138 -0.11416,0.31848 -0.49954,0.81245 -0.73013,0.93586 -0.19303,0.1033 -0.49266,0.18008 -0.49266,0.12624 z m -48.4505,-0.26721 c -0.30913,-0.18401 -0.38115,-0.29653 -0.38003,-0.59375 0.002,-0.40188 0.084,-0.45731 0.21799,-0.14653 0.064,0.14839 0.21228,0.40552 0.32957,0.57141 0.23159,0.32755 0.18239,0.37715 -0.16753,0.16887 z m 49.48358,-0.16887 c 0.12012,-0.16589 0.27091,-0.42302 0.33509,-0.57141 0.13441,-0.31074 0.21684,-0.25543 0.21836,0.14653 0.001,0.29722 -0.0709,0.40974 -0.38003,0.59375 -0.35939,0.21392 -0.41287,0.16184 -0.17342,-0.16887 z m -50.37004,-1.29445 c -0.005,-0.32785 -0.21565,-0.81925 -0.48803,-1.13835 -0.28289,-0.33142 -0.35308,-0.5926 -0.20031,-0.74537 0.20668,-0.20668 0.59486,0.0663 0.81195,0.57091 0.16467,0.38277 0.15556,0.96912 -0.0201,1.2936 l -0.10098,0.18654 z m 51.31097,-0.0332 c -0.0461,-0.0993 -0.0981,-0.35296 -0.11572,-0.56377 -0.0256,-0.30614 -0.003,-0.45024 0.11106,-0.71584 0.21709,-0.50466 0.60527,-0.77759 0.81195,-0.57091 0.15047,0.15047 0.0833,0.4159 -0.18322,0.72381 -0.29358,0.33921 -0.36474,0.48646 -0.46778,0.96796 l -0.0726,0.33923 z m -50.9628,-0.94247 c -0.0213,-0.0698 -0.12845,-0.30954 -0.238,-0.53265 -0.19444,-0.39602 -0.26706,-0.46691 -0.87471,-0.85387 -0.28894,-0.184 -0.34083,-0.49041 -0.10881,-0.64244 0.13531,-0.0886 0.17769,-0.0896 0.37286,-0.008 0.28324,0.11835 0.72798,0.6014 0.88914,0.96574 0.13586,0.30712 0.16943,0.89347 0.0621,1.08465 -0.06,0.10686 -0.0661,0.10607 -0.1026,-0.0134 z m 1.99879,0.0451 c -0.16113,-0.0499 -0.38682,-0.28668 -0.52719,-0.55308 -0.15628,-0.29663 -0.18064,-0.88028 -0.0524,-1.25471 0.0961,-0.28049 0.19855,-0.2564 0.19855,0.0467 0,0.26657 0.19348,0.7241 0.37482,0.88634 0.23406,0.20941 0.40325,0.53474 0.36252,0.69705 -0.0387,0.15398 -0.18971,0.22931 -0.35634,0.17771 z m 46.52967,0.002 c -0.2739,-0.0609 -0.15606,-0.54705 0.21251,-0.87681 0.18134,-0.16224 0.37482,-0.61977 0.37482,-0.88634 0,-0.30309 0.10245,-0.32718 0.19855,-0.0467 0.12828,0.37443 0.10392,0.95808 -0.0524,1.25471 -0.21094,0.40036 -0.48763,0.60976 -0.73352,0.55513 z m 2.0781,-0.0835 c -0.0799,-0.25175 -0.0375,-0.75439 0.0874,-1.03684 0.16039,-0.36257 0.60562,-0.84563 0.88826,-0.96372 0.19434,-0.0812 0.23769,-0.0805 0.36913,0.006 0.10015,0.0656 0.14892,0.15852 0.14892,0.28365 0,0.19593 -0.0476,0.2426 -0.58411,0.57289 -0.30699,0.18898 -0.65135,0.67783 -0.7279,1.03331 -0.0491,0.22792 -0.12822,0.27371 -0.18172,0.10514 z m -50.33817,-1.00133 c -0.12033,-0.33879 -0.53809,-0.85386 -0.80414,-0.99144 -0.0938,-0.0485 -0.36319,-0.15042 -0.5987,-0.2265 -0.50341,-0.16264 -0.67625,-0.34957 -0.5597,-0.60536 0.12422,-0.27263 0.3257,-0.31546 0.74928,-0.1593 0.8562,0.31566 1.41988,0.89284 1.47072,1.50596 0.0294,0.35512 -0.0267,0.78413 -0.10253,0.78413 -0.0251,0 -0.0949,-0.13837 -0.15493,-0.30749 z m 49.95391,0.0823 c -0.0804,-0.42857 -0.001,-0.87199 0.21098,-1.1803 0.36444,-0.52968 1.43414,-1.10506 1.76998,-0.95205 0.0841,0.0383 0.18511,0.14036 0.22447,0.22675 0.11655,0.25579 -0.0563,0.44272 -0.5597,0.60536 -0.23551,0.0761 -0.50492,0.17801 -0.5987,0.2265 -0.26605,0.13758 -0.68381,0.65265 -0.80414,0.99144 -0.0601,0.16912 -0.12978,0.30749 -0.15493,0.30749 -0.0251,0 -0.0647,-0.10134 -0.088,-0.22519 z m -37.30151,-0.63206 v -0.73025 h 3.302 3.302 v 0.73025 0.73025 h -3.302 -3.302 z m -12.31808,-0.18722 c -0.0448,-0.16011 -0.1595,-0.4141 -0.25483,-0.56442 -0.19155,-0.30203 -0.56528,-0.51898 -1.5234,-0.88431 -0.37003,-0.1411 -0.54598,-0.24177 -0.56112,-0.32106 -0.0121,-0.0635 0.15045,-0.37785 0.3613,-0.6985 0.66013,-1.00385 0.73915,-1.28604 0.54406,-1.94298 -0.0548,-0.18441 -0.0851,-0.34979 -0.0674,-0.36751 0.0623,-0.0623 0.3671,0.30446 0.50001,0.6016 0.18102,0.40474 0.18001,1.16832 -0.002,1.67971 l -0.12947,0.36331 0.20939,0.12942 c 0.32402,0.20025 0.74613,0.66557 0.93722,1.03318 0.13215,0.2542 0.17335,0.42368 0.17365,0.71428 5.8e-4,0.51682 -0.0826,0.63105 -0.18723,0.25728 z m 49.38021,0.19008 c -0.10329,-0.26917 -0.0385,-0.82905 0.13437,-1.16164 0.19109,-0.36761 0.6132,-0.83293 0.93722,-1.03318 l 0.20939,-0.12942 -0.12947,-0.36331 c -0.087,-0.24407 -0.13105,-0.53171 -0.13429,-0.87638 -0.004,-0.43437 0.0214,-0.56674 0.1664,-0.86304 0.17075,-0.349 0.39453,-0.61303 0.46221,-0.54535 0.0196,0.0196 -0.009,0.18656 -0.0639,0.37097 -0.19509,0.65694 -0.11607,0.93913 0.54406,1.94298 0.21085,0.32065 0.37344,0.63497 0.3613,0.6985 -0.0151,0.0791 -0.19212,0.18097 -0.56112,0.323 -1.30698,0.50307 -1.48485,0.64151 -1.74408,1.35745 -0.0999,0.27578 -0.1525,0.35655 -0.1821,0.27942 z m -49.12205,-0.97124 c -0.20717,-0.58776 -0.72386,-1.23222 -1.09579,-1.36679 -0.0984,-0.0356 -0.0972,-0.0628 0.0159,-0.36048 0.14679,-0.38631 0.16002,-1.03064 0.0311,-1.51493 -0.11017,-0.41388 -0.0312,-0.4113 0.25807,0.008 0.23236,0.33716 0.3702,0.88426 0.32464,1.28846 -0.0257,0.22838 -0.002,0.30358 0.15255,0.49156 0.31804,0.38584 0.49766,0.85258 0.49835,1.29499 3.2e-4,0.21829 -0.0222,0.39688 -0.0501,0.39688 -0.0279,0 -0.0885,-0.10716 -0.13468,-0.23813 z m 48.82704,-0.15875 c 6.8e-4,-0.43319 0.17202,-0.88885 0.47879,-1.27333 0.14607,-0.18305 0.17036,-0.27772 0.18346,-0.71501 0.0161,-0.53688 0.12019,-0.86115 0.39008,-1.21499 0.22746,-0.29822 0.28254,-0.26046 0.18031,0.12358 -0.12801,0.48086 -0.11432,1.12594 0.0321,1.51123 0.11312,0.29772 0.11432,0.32487 0.0159,0.36048 -0.37193,0.13457 -0.88862,0.77903 -1.09579,1.3668 -0.0462,0.13096 -0.10677,0.23812 -0.13468,0.23812 -0.0279,0 -0.0505,-0.17859 -0.0501,-0.39688 z m -51.83853,-1.43374 c -0.15473,-0.17098 -0.12845,-0.39779 0.075,-0.64729 0.099,-0.12146 0.26336,-0.36372 0.36513,-0.53834 0.16574,-0.28439 0.1848,-0.37378 0.18274,-0.85725 -0.001,-0.31881 -0.0359,-0.60046 -0.0845,-0.68806 -0.19386,-0.34969 0.16772,-0.15225 0.45623,0.24913 0.34398,0.47854 0.33622,1.12994 -0.0219,1.83938 -0.35864,0.71047 -0.70442,0.93884 -0.97267,0.64243 z m 54.39046,-0.11098 c -0.43939,-0.53306 -0.69293,-1.35236 -0.57748,-1.86616 0.0339,-0.15081 0.13615,-0.37791 0.22727,-0.50467 0.28434,-0.39557 0.64524,-0.59698 0.46447,-0.25921 -0.0407,0.076 -0.0899,0.34857 -0.10933,0.60565 -0.0316,0.41759 -0.0174,0.50414 0.13312,0.81176 0.0926,0.18938 0.26785,0.46935 0.38932,0.62216 0.24563,0.30899 0.28195,0.55321 0.10596,0.71248 -0.19394,0.17551 -0.42474,0.13104 -0.63333,-0.12201 z m -26.88672,-0.51903 c -0.0533,-0.0611 -0.26207,-0.35298 -0.46401,-0.64858 -1.81833,-2.66163 -2.05941,-5.52926 -0.69559,-8.27392 0.15635,-0.31466 0.28427,-0.57776 0.28427,-0.58467 0,-0.0214 -1.21322,0.27725 -1.68275,0.41416 -1.67918,0.48963 -3.09472,1.21849 -3.87675,1.99614 -0.41355,0.41124 -0.87098,1.11619 -0.78201,1.20516 0.0205,0.0204 0.20551,0.10048 0.41123,0.17783 0.32892,0.12368 0.49274,0.14029 1.35828,0.13772 0.90275,-0.003 1.02894,-0.0176 1.524,-0.18071 0.29686,-0.0978 0.69062,-0.24624 0.87501,-0.3299 0.18439,-0.0837 0.35312,-0.1521 0.37496,-0.1521 0.1059,0 -0.24666,0.29355 -0.61483,0.51192 -1.01956,0.60471 -2.1321,0.89841 -3.42914,0.90524 -0.75012,0.004 -2.18852,-0.16781 -2.25093,-0.26879 -0.0145,-0.0235 0.0754,-0.24146 0.19989,-0.48441 0.98394,-1.92074 2.5228,-3.27888 4.53938,-4.0063 0.63454,-0.22889 1.78109,-0.45968 2.52632,-0.50852 0.35026,-0.023 0.63684,-0.0644 0.63684,-0.0921 0,-0.082 -2.00842,-1.93169 -2.7305,-2.51466 -0.36671,-0.29607 -1.0668,-0.80477 -1.55575,-1.13044 -2.00384,-1.3347 -3.68441,-1.93819 -5.39124,-1.93599 -0.68671,8.9e-4 -1.43493,0.10476 -1.5446,0.21444 -0.0625,0.0625 0.17046,0.9716 0.36771,1.43512 0.21166,0.4974 0.74622,1.45788 0.88377,1.58795 0.0185,0.0175 0.11746,0.14416 0.21998,0.28155 0.551,0.73841 1.62648,1.69548 2.70213,2.40463 0.29686,0.19572 0.61119,0.41581 0.6985,0.48909 l 0.15875,0.13324 -0.15875,-0.0425 c -0.0873,-0.0234 -0.45473,-0.16627 -0.81648,-0.31761 -2.12289,-0.88811 -3.95038,-2.52155 -5.4476,-4.86915 -0.40297,-0.63185 -1.4192,-2.60664 -1.41935,-2.75815 -1.2e-4,-0.0987 0.11578,-0.13001 0.76193,-0.20591 1.89447,-0.22251 3.11922,-0.215 4.67266,0.0286 2.36037,0.37019 4.49113,1.44023 6.28731,3.15738 0.32837,0.31392 0.59703,0.55609 0.59703,0.53816 0,-0.0179 -0.0845,-0.2312 -0.18779,-0.47391 -0.53806,-1.26443 -1.00129,-3.04815 -1.14437,-4.40653 -0.0809,-0.76846 -0.0811,-2.21641 -3.8e-4,-2.94422 0.27993,-2.52344 1.29955,-5.19797 2.90502,-7.62 0.40909,-0.61716 1.27966,-1.80975 1.32108,-1.80975 0.0113,0 0.20342,0.23574 0.42691,0.52387 2.03745,2.62676 3.37585,5.64509 3.76604,8.49313 0.14475,1.05654 0.14558,2.76842 0.002,3.77825 -0.18808,1.32134 -0.53106,2.59064 -1.04237,3.85762 -0.13742,0.34052 -0.23803,0.61913 -0.22357,0.61913 0.0144,0 0.24624,-0.21747 0.51507,-0.48328 2.29273,-2.26687 5.19661,-3.40721 8.68029,-3.40871 1.10723,-5.1e-4 2.93871,0.17523 3.06097,0.29367 0.1454,0.14085 -1.08912,2.48791 -1.90837,3.62818 -0.97357,1.35506 -2.17958,2.51376 -3.41704,3.28303 -0.85491,0.53144 -2.35117,1.20491 -2.45231,1.10378 -0.0137,-0.0137 0.19461,-0.16294 0.46289,-0.33166 1.89493,-1.19173 3.35993,-2.72418 4.057,-4.24376 0.19732,-0.43013 0.4555,-1.18792 0.5177,-1.51948 0.0384,-0.20473 0.0281,-0.22408 -0.13968,-0.26183 -0.0996,-0.0224 -0.28117,-0.0664 -0.40341,-0.0978 -0.12224,-0.0313 -0.57944,-0.0569 -1.016,-0.0568 -1.19648,3.2e-4 -2.26719,0.26732 -3.62712,0.90443 -1.55102,0.72665 -3.42214,2.11045 -5.24265,3.87726 l -0.86259,0.83713 0.62754,0.0447 c 1.2272,0.0875 2.58516,0.4379 3.52112,0.90867 1.00019,0.50308 2.00415,1.32412 2.7279,2.23089 0.38497,0.48232 0.97772,1.4698 1.04518,1.74117 l 0.0405,0.16296 -0.68658,0.1056 c -1.08984,0.16762 -1.53191,0.18966 -2.21058,0.11017 -0.99116,-0.11609 -2.03083,-0.419 -2.56382,-0.74698 -0.69596,-0.42827 -0.99343,-0.65195 -0.86701,-0.65195 0.0206,0 0.21514,0.075 0.43237,0.16656 1.00628,0.42434 1.33964,0.49329 2.39521,0.49538 0.88144,0.002 1.02239,-0.0133 1.34937,-0.14406 0.21238,-0.0849 0.36513,-0.185 0.36513,-0.23922 0,-0.1937 -0.27135,-0.61217 -0.67311,-1.03806 -0.71949,-0.7627 -1.87692,-1.40846 -3.45439,-1.92732 -0.88016,-0.2895 -2.07972,-0.58873 -2.1357,-0.53275 -0.0173,0.0173 0.0677,0.22834 0.18888,0.46898 0.34356,0.68221 0.53206,1.18385 0.72001,1.91608 0.15356,0.59823 0.17342,0.79209 0.17335,1.69166 -6e-5,0.84397 -0.0249,1.11815 -0.14649,1.61925 -0.17773,0.7323 -0.50527,1.56719 -0.88343,2.25192 -0.32268,0.58423 -1.01914,1.62158 -1.08872,1.62158 -0.0257,0 -0.0903,-0.05 -0.14357,-0.11113 z m 0.76658,-3.06387 c 0.42754,-0.81942 0.58447,-1.35534 0.62292,-2.12725 0.0268,-0.53884 0.008,-0.72761 -0.12677,-1.24657 -0.0871,-0.33636 -0.25214,-0.80785 -0.36669,-1.04775 -0.23117,-0.48411 -0.69639,-1.22993 -0.7672,-1.22993 -0.11911,0 -0.68074,0.96348 -0.92841,1.59268 -0.26907,0.68354 -0.35309,1.22783 -0.31163,2.01858 0.0511,0.97442 0.3189,1.72341 0.95137,2.66081 l 0.26875,0.39833 0.17146,-0.20783 c 0.0943,-0.1143 0.31309,-0.47928 0.4862,-0.81107 z m 0.0314,-10.16 c 1.37789,-2.07416 2.07668,-3.91411 2.26343,-5.95975 0.24112,-2.64112 -0.70262,-5.51267 -2.65856,-8.08932 l -0.27694,-0.36482 -0.30716,0.40575 c -1.75681,2.32069 -2.66186,4.77339 -2.66186,7.21364 0,2.38966 0.84346,4.75471 2.57107,7.2092 l 0.381,0.54131 0.14413,-0.17638 c 0.0793,-0.097 0.32447,-0.44784 0.54489,-0.77963 z m -28.61639,12.84096 c -0.14137,-0.15621 -0.13754,-0.20133 0.0562,-0.66158 0.18775,-0.44607 0.20959,-0.86129 0.072,-1.36851 -0.0498,-0.18335 -0.0685,-0.33337 -0.0416,-0.33337 0.13834,0 0.56207,0.60129 0.63347,0.89892 0.0976,0.407 0.0463,0.99943 -0.11329,1.30818 -0.1462,0.2828 -0.42683,0.35512 -0.60671,0.15636 z m 55.1189,-0.034 c -0.22689,-0.34627 -0.29522,-0.9577 -0.16487,-1.47533 0.0657,-0.26105 0.50095,-0.85415 0.62677,-0.85415 0.0285,0 0.0102,0.13573 -0.0408,0.30162 -0.1485,0.48337 -0.12575,0.91834 0.074,1.41448 0.16807,0.41749 0.17131,0.44504 0.0704,0.59901 -0.13944,0.21281 -0.43067,0.22021 -0.56554,0.0144 z m -55.55238,-0.974 c -0.0603,-0.0727 -0.0875,-0.29255 -0.0882,-0.71437 -8.8e-4,-0.51261 -0.0243,-0.65319 -0.14731,-0.88539 -0.0804,-0.15181 -0.13454,-0.28775 -0.12022,-0.30207 0.054,-0.054 0.5418,0.35236 0.6676,0.55615 0.28156,0.45613 0.33183,1.12352 0.10194,1.35341 -0.12707,0.12707 -0.30471,0.12375 -0.41382,-0.008 z m 56.11738,0.008 c -0.22989,-0.22989 -0.17962,-0.89728 0.10194,-1.35341 0.1258,-0.20379 0.61359,-0.61015 0.6676,-0.55615 0.0143,0.0143 -0.0398,0.15026 -0.12022,0.30207 -0.12304,0.2322 -0.14643,0.37278 -0.14731,0.88539 -0.001,0.63907 -0.0649,0.81939 -0.29003,0.81939 -0.0631,0 -0.15847,-0.0438 -0.21198,-0.0973 z m -52.47231,-4.91464 c -0.38731,-0.0972 -0.7421,-0.43405 -0.90796,-0.8621 -0.10488,-0.27068 -0.0942,-1.03808 0.0182,-1.30712 0.44621,-1.06793 1.77739,-1.17181 2.33275,-0.18203 0.1369,0.24399 0.15875,0.36228 0.15875,0.85941 0,0.53141 -0.0151,0.60091 -0.1931,0.889 -0.30004,0.48559 -0.88252,0.73486 -1.40868,0.60284 z m 0.60376,-0.67517 c 0.35612,-0.24944 0.4576,-1.02816 0.18643,-1.43055 -0.41169,-0.6109 -1.06784,-0.27704 -1.07524,0.54711 -0.007,0.74541 0.44495,1.19433 0.88881,0.88344 z m 3.91126,0.66514 c -0.14397,-0.0343 -0.36752,-0.15421 -0.49677,-0.26655 l -0.23501,-0.20424 0.21817,-0.21038 0.21818,-0.21038 0.23983,0.16276 c 0.1397,0.0948 0.32892,0.16275 0.45322,0.16275 0.27282,0 0.49137,-0.20255 0.43175,-0.40012 -0.0661,-0.219 -0.1269,-0.25386 -0.4962,-0.28449 -0.33813,-0.028 -0.34673,-0.0336 -0.38784,-0.25275 -0.039,-0.20773 -0.0177,-0.24868 0.29118,-0.56147 l 0.33321,-0.3374 -0.56673,-0.0185 -0.56673,-0.0185 v -0.254 -0.254 h 1.016 1.016 l 0.0206,0.21604 c 0.0184,0.19237 -0.021,0.25568 -0.35942,0.57768 l -0.38003,0.36163 0.23883,0.10537 c 0.3525,0.15552 0.46598,0.31392 0.49639,0.69289 0.0291,0.36308 -0.10817,0.64513 -0.43004,0.88339 -0.19289,0.14279 -0.69673,0.19548 -1.05461,0.11029 z m 40.26676,0.005 c -0.45592,-0.14224 -0.73762,-0.59107 -0.77989,-1.24258 -0.0817,-1.25893 0.6744,-2.02731 1.71143,-1.73927 0.12818,0.0356 0.29621,0.11587 0.37342,0.17839 l 0.14037,0.11366 -0.15117,0.23322 c -0.1675,0.25843 -0.20692,0.27102 -0.43691,0.13954 -0.36168,-0.20676 -0.82912,-0.0135 -0.90307,0.37329 -0.028,0.14654 -0.026,0.14705 0.21068,0.0541 0.47943,-0.18833 1.12698,0.0482 1.30619,0.47709 0.12672,0.30328 0.0837,0.76617 -0.0944,1.01636 -0.24906,0.34977 -0.913,0.54087 -1.3766,0.39623 z m 0.75746,-0.67058 c 0.1304,-0.13039 0.12829,-0.496 -0.003,-0.60537 -0.0568,-0.0471 -0.21168,-0.0857 -0.34418,-0.0857 -0.4388,0 -0.65763,0.38428 -0.37805,0.66386 0.1564,0.1564 0.58061,0.17231 0.72571,0.0272 z m 2.17226,0.64177 c -0.30187,-0.10761 -0.58062,-0.36537 -0.75779,-0.70073 -0.19032,-0.36023 -0.19032,-1.16377 0,-1.524 0.76237,-1.44305 2.62984,-0.74924 2.47841,0.92078 -0.0577,0.63603 -0.46349,1.18581 -0.98148,1.32965 -0.30898,0.0858 -0.43905,0.0813 -0.73914,-0.0257 z m 0.73337,-0.66467 c 0.16353,-0.12863 0.30566,-0.49973 0.30566,-0.79806 0,-0.72441 -0.57592,-1.1761 -0.98191,-0.77011 -0.14825,0.14825 -0.28738,0.52108 -0.28738,0.77011 0,0.69047 0.53604,1.13441 0.96363,0.79806 z m -52.10156,0.6533 c -0.0241,-0.0241 -0.0438,-0.13855 -0.0438,-0.25439 0,-0.19016 0.0644,-0.26365 0.66295,-0.75677 0.71234,-0.58683 0.86105,-0.7604 0.86105,-1.00493 0,-0.38448 -0.43283,-0.4739 -0.78732,-0.16265 l -0.22024,0.19338 -0.20532,-0.18345 c -0.2473,-0.22096 -0.22485,-0.3175 0.1343,-0.57767 0.36264,-0.26269 0.83348,-0.31881 1.22431,-0.14593 0.38629,0.17087 0.52102,0.38969 0.52102,0.84623 0,0.44166 -0.0853,0.5724 -0.7198,1.10282 l -0.45573,0.381 0.63893,0.0181 0.63893,0.0181 -0.0194,0.26762 -0.0194,0.26761 -1.08334,0.0173 c -0.59584,0.01 -1.10305,-0.002 -1.12713,-0.0265 z m 6.24272,-1.10437 v -1.1519 l -0.24748,0.0418 c -0.27595,0.0466 -0.29473,0.0313 -0.35487,-0.28925 l -0.0424,-0.22588 0.3849,-0.10701 c 0.2117,-0.0588 0.51445,-0.10701 0.67278,-0.10701 h 0.28788 l -0.017,1.47637 -0.017,1.47638 -0.33337,0.0192 -0.33338,0.0192 z m 40.132,-0.003 v -1.14859 l -0.25022,0.0423 -0.25022,0.0423 -0.0714,-0.26535 c -0.0393,-0.14594 -0.0624,-0.27326 -0.0514,-0.28292 0.0784,-0.0687 0.79192,-0.22361 1.02995,-0.22361 h 0.29185 v 1.49225 1.49225 h -0.34925 -0.34925 v -1.14858 z m 7.3025,-0.34367 v -1.49225 l 0.36512,0.002 0.36513,0.002 0.29775,0.49048 c 0.50126,0.82571 0.42034,0.81449 0.84251,0.11672 l 0.36936,-0.61049 h 0.37232 0.37231 v 1.49225 1.49225 h -0.34925 -0.34925 l -1.3e-4,-0.93662 -1.2e-4,-0.93663 -0.38045,0.57136 c -0.20924,0.31425 -0.40207,0.57808 -0.42849,0.5863 -0.0264,0.008 -0.2195,-0.24713 -0.42905,-0.56743 l -0.381,-0.58236 -0.0176,0.93269 -0.0176,0.93269 h -0.3158 -0.31581 v -1.49225 z m -51.35468,-5.12786 c -0.11299,-0.21815 -0.43442,-0.65001 -0.71429,-0.95969 -0.81449,-0.90124 -1.17114,-1.59673 -1.25182,-2.44116 l -0.0383,-0.40071 0.41116,-0.40118 c 0.54445,-0.53122 1.12799,-0.80972 2.20589,-1.05276 1.61731,-0.36467 2.43366,-0.98949 2.71562,-2.0785 0.0705,-0.27213 0.15833,-0.42683 0.34498,-0.60731 0.81051,-0.78374 0.96743,-1.88226 0.4794,-3.356 -0.31053,-0.93774 -0.40044,-1.56868 -0.30548,-2.14367 0.11773,-0.71289 0.22765,-0.92657 0.55604,-1.08093 0.74722,-0.35123 1.55228,-0.40044 2.65406,-0.16223 1.63765,0.35407 2.75543,0.0863 3.40284,-0.81521 0.15476,-0.2155 0.27076,-0.294 0.61889,-0.41886 0.56149,-0.20137 1.01401,-0.64307 1.31968,-1.28813 0.2401,-0.50667 0.31903,-0.84477 0.41583,-1.78118 0.10076,-0.97462 0.39007,-1.70629 0.91597,-2.3165 l 0.2326,-0.26987 0.48717,8.2e-4 c 0.81352,0.001 1.45042,0.24963 2.36043,0.92008 0.97063,0.71511 1.59393,0.94792 2.43493,0.90945 0.41891,-0.0191 0.58453,-0.0587 0.86707,-0.20713 0.30671,-0.16111 0.41926,-0.18413 0.92402,-0.18896 0.52913,-0.005 0.61248,-0.0241 1.04983,-0.24029 0.74017,-0.36579 1.23229,-0.90613 1.78003,-1.95447 0.29305,-0.5609 1.04341,-1.3124 1.57439,-1.57682 0.22386,-0.11147 0.45504,-0.20268 0.51373,-0.20268 0.0587,0 0.28987,0.0912 0.51373,0.20268 0.53098,0.26442 1.28134,1.01592 1.57439,1.57682 0.54774,1.04834 1.03986,1.58868 1.78003,1.95447 0.43735,0.21614 0.5207,0.23522 1.04983,0.24029 0.50476,0.005 0.61731,0.0279 0.92402,0.18896 0.28254,0.14841 0.44816,0.18798 0.86707,0.20713 0.841,0.0385 1.4643,-0.19434 2.43493,-0.90945 0.91001,-0.67045 1.54691,-0.91871 2.36043,-0.92008 l 0.48717,-8.2e-4 0.2326,0.26987 c 0.5259,0.61021 0.81521,1.34188 0.91597,2.3165 0.0968,0.93641 0.17573,1.27451 0.41583,1.78118 0.30567,0.64506 0.75819,1.08676 1.31968,1.28813 0.34813,0.12486 0.46413,0.20336 0.61889,0.41886 0.64741,0.9015 1.76519,1.16928 3.40284,0.81521 1.10178,-0.23821 1.90684,-0.189 2.65406,0.16223 0.32839,0.15436 0.43831,0.36804 0.55604,1.08093 0.095,0.57499 0.005,1.20593 -0.30548,2.14367 -0.48803,1.47374 -0.33111,2.57226 0.4794,3.356 0.18665,0.18048 0.27453,0.33518 0.34498,0.60731 0.12623,0.48753 0.35504,0.86276 0.73371,1.20321 0.45721,0.41108 1.01081,0.65633 1.96941,0.87247 1.09124,0.24605 1.67187,0.52233 2.21839,1.05558 l 0.41116,0.40118 -0.0383,0.40071 c -0.0807,0.84443 -0.43733,1.53992 -1.25182,2.44116 -0.27987,0.30968 -0.6013,0.74154 -0.71429,0.95969 -0.11299,0.21815 -0.22734,0.39675 -0.25412,0.39688 -0.0714,3.1e-4 0.25636,-0.62579 0.48193,-0.92052 0.10691,-0.1397 0.34375,-0.41375 0.52629,-0.60901 0.65583,-0.70147 1.04068,-1.46578 1.14247,-2.26894 l 0.0428,-0.33794 -0.40785,-0.39795 c -0.54036,-0.52723 -1.13367,-0.81684 -2.08622,-1.01833 -0.89421,-0.18915 -1.17947,-0.28839 -1.64925,-0.57376 -0.63758,-0.38732 -1.05413,-0.93519 -1.21338,-1.59591 -0.0536,-0.22247 -0.15906,-0.39993 -0.37296,-0.62766 -0.59305,-0.63141 -0.726,-1.02232 -0.68734,-2.02093 0.0238,-0.61508 0.0605,-0.80682 0.27507,-1.43982 0.23503,-0.69319 0.24767,-0.77054 0.2491,-1.524 0.002,-1.01937 -0.0985,-1.32631 -0.49376,-1.50974 -0.70832,-0.32867 -1.65819,-0.3806 -2.61623,-0.14302 -1.45486,0.36079 -2.73635,0.0683 -3.40442,-0.77692 -0.19465,-0.24627 -0.34729,-0.36553 -0.58822,-0.45957 -0.68302,-0.26661 -0.89584,-0.44667 -1.2759,-1.0795 -0.3035,-0.50535 -0.4689,-1.06389 -0.54457,-1.83899 -0.0342,-0.35063 -0.0943,-0.78039 -0.13348,-0.95501 -0.10313,-0.45967 -0.4539,-1.16001 -0.75535,-1.50813 -0.25366,-0.29293 -0.27146,-0.30162 -0.61732,-0.30162 -0.78803,0 -1.5321,0.29319 -2.41962,0.95341 -1.28051,0.95256 -2.39238,1.16874 -3.39377,0.65986 -0.27624,-0.14037 -0.40438,-0.16563 -0.79466,-0.1566 -1.18487,0.0274 -2.13728,-0.69213 -2.93676,-2.21867 -0.30097,-0.57468 -1.04477,-1.31179 -1.59901,-1.58465 l -0.42817,-0.21078 -0.42817,0.21078 c -0.55424,0.27286 -1.29804,1.00997 -1.59901,1.58465 -0.79948,1.52654 -1.75189,2.24607 -2.93676,2.21867 -0.39028,-0.009 -0.51842,0.0162 -0.79466,0.1566 -1.00139,0.50888 -2.11326,0.2927 -3.39377,-0.65986 -0.88752,-0.66022 -1.63159,-0.95341 -2.41962,-0.95341 -0.34586,0 -0.36366,0.009 -0.61732,0.30162 -0.30145,0.34812 -0.65222,1.04846 -0.75535,1.50813 -0.0392,0.17462 -0.0992,0.60438 -0.13348,0.95501 -0.0757,0.7751 -0.24107,1.33364 -0.54457,1.83899 -0.38006,0.63283 -0.59288,0.81289 -1.2759,1.0795 -0.24093,0.094 -0.39357,0.2133 -0.58822,0.45957 -0.66807,0.84526 -1.94956,1.13771 -3.40442,0.77692 -0.95804,-0.23758 -1.90791,-0.18565 -2.61623,0.14302 -0.39531,0.18343 -0.4957,0.49037 -0.49376,1.50974 0.001,0.75346 0.0141,0.83081 0.2491,1.524 0.21462,0.633 0.25125,0.82474 0.27507,1.43982 0.0387,0.99861 -0.0943,1.38952 -0.68734,2.02093 -0.2139,0.22773 -0.31935,0.40519 -0.37296,0.62766 -0.15925,0.66072 -0.5758,1.20859 -1.21338,1.59591 -0.46978,0.28537 -0.75504,0.38461 -1.64925,0.57376 -1.07102,0.22655 -1.95033,0.70621 -2.34903,1.28138 -0.11898,0.17164 -0.1353,0.25473 -0.0998,0.508 0.11052,0.78828 0.49749,1.54652 1.14004,2.23378 0.18254,0.19526 0.41938,0.46931 0.52629,0.60901 0.22557,0.29473 0.55338,0.92086 0.48193,0.92052 -0.0268,-1.3e-4 -0.14113,-0.17873 -0.25412,-0.39688 z m 0.30503,-0.10236 c -0.23501,-0.46066 -0.28209,-0.78335 -0.17037,-1.16768 0.1219,-0.41932 0.31741,-0.68235 0.50718,-0.68235 0.34788,0 0.37824,0.28754 0.089,0.84323 -0.17083,0.32825 -0.20507,0.46469 -0.20637,0.82257 -8.6e-4,0.23597 -0.0224,0.42919 -0.0479,0.42937 -0.0255,1.9e-4 -0.10269,-0.11013 -0.17157,-0.24514 z m 51.07983,-0.18423 c -0.001,-0.35788 -0.0355,-0.49432 -0.20637,-0.82257 -0.28921,-0.55569 -0.25885,-0.84323 0.089,-0.84323 0.33364,0 0.66237,0.80896 0.53473,1.31587 -0.0811,0.32202 -0.29813,0.77981 -0.36949,0.7793 -0.0255,-1.9e-4 -0.047,-0.1934 -0.0479,-0.42937 z m -51.60035,-0.66568 c -0.0479,-0.1135 -0.086,-0.4064 -0.0846,-0.65087 0.003,-0.47625 0.11769,-0.77772 0.44526,-1.16702 0.1485,-0.17648 0.16967,-0.26064 0.18188,-0.72286 0.0187,-0.70827 0.28847,-1.24238 0.74835,-1.48165 0.2795,-0.14543 0.29249,-0.10811 0.0986,0.28314 -0.23055,0.46515 -0.27923,0.81155 -0.17505,1.2458 0.1192,0.49691 -1.9e-4,0.86033 -0.39105,1.19036 -0.33284,0.28103 -0.54701,0.70422 -0.60524,1.19591 -0.0204,0.17247 -0.0583,0.31357 -0.0841,0.31357 -0.0258,0 -0.0861,-0.0929 -0.13403,-0.20638 z m 52.11415,-0.1244 c -0.0675,-0.50887 -0.26459,-0.89789 -0.59717,-1.1787 -0.39086,-0.33003 -0.51025,-0.69345 -0.39105,-1.19036 0.10418,-0.43425 0.0555,-0.78065 -0.17505,-1.2458 -0.19392,-0.39125 -0.18093,-0.42857 0.0986,-0.28314 0.45988,0.23927 0.72964,0.77338 0.74835,1.48165 0.0122,0.46222 0.0334,0.54638 0.18188,0.72286 0.32757,0.3893 0.4426,0.69077 0.44526,1.16702 0.002,0.41522 -0.11076,0.85725 -0.21929,0.85725 -0.0262,0 -0.0674,-0.14885 -0.0915,-0.33078 z m -52.67872,-0.73285 c -0.16653,-0.44265 -0.14505,-0.754 0.0849,-1.23069 0.0905,-0.18751 0.18183,-0.47675 0.20307,-0.64276 0.0438,-0.34248 0.32016,-0.75298 0.66196,-0.98332 0.33048,-0.22271 0.39857,-0.18493 0.22762,0.12627 -0.21413,0.38982 -0.3201,0.93182 -0.24219,1.23875 0.0594,0.23387 0.051,0.26006 -0.14073,0.44252 -0.26544,0.25256 -0.47051,0.68339 -0.51861,1.08955 -0.0212,0.17865 -0.061,0.32481 -0.0886,0.32481 -0.0276,0 -0.11191,-0.16431 -0.18746,-0.36513 z m 53.19346,0.0403 c -0.0481,-0.40616 -0.25317,-0.83699 -0.51861,-1.08955 -0.19176,-0.18246 -0.20009,-0.20865 -0.14073,-0.44252 0.0779,-0.30693 -0.0281,-0.84893 -0.24219,-1.23875 -0.17969,-0.32711 -0.0975,-0.35084 0.27656,-0.0799 0.35132,0.2545 0.57198,0.60416 0.62275,0.98685 0.023,0.17346 0.11269,0.45238 0.19929,0.61981 0.22323,0.43162 0.24493,0.7625 0.0789,1.2037 -0.0755,0.20082 -0.15991,0.36513 -0.18746,0.36513 -0.0276,0 -0.0674,-0.14616 -0.0886,-0.32481 z m -53.57556,-0.56419 c -0.054,-0.0949 -0.0909,-0.33764 -0.0917,-0.60325 -0.002,-0.56946 0.23402,-1.09139 0.61845,-1.36987 0.14113,-0.10224 0.28045,-0.18588 0.3096,-0.18588 0.0292,0 -0.0323,0.16784 -0.13653,0.37298 -0.10424,0.20514 -0.19078,0.41231 -0.19232,0.46037 -0.002,0.0481 -0.0469,0.2017 -0.10073,0.3414 -0.0539,0.1397 -0.14711,0.45402 -0.20719,0.6985 -0.10663,0.43388 -0.11139,0.44071 -0.19963,0.28575 z m 54.07421,-0.096 c -0.0228,-0.13926 -0.0841,-0.38179 -0.13605,-0.53895 -0.052,-0.15716 -0.1337,-0.42306 -0.18159,-0.59088 -0.0479,-0.16782 -0.16097,-0.44642 -0.25127,-0.61912 -0.0903,-0.1727 -0.13962,-0.314 -0.1096,-0.314 0.03,0 0.17014,0.0837 0.31138,0.18602 0.27283,0.19764 0.54082,0.67254 0.62089,1.10028 0.0548,0.2927 -0.008,0.75084 -0.12528,0.91095 -0.08,0.10945 -0.0902,0.0988 -0.12848,-0.1343 z M 144.7029,248.808 c -0.11979,-0.43133 -0.0882,-0.55916 0.19859,-0.80467 0.14599,-0.12496 0.28934,-0.2272 0.31857,-0.2272 0.0292,0 -0.0173,0.13896 -0.10334,0.30879 -0.0861,0.16984 -0.17595,0.45559 -0.19975,0.635 -0.0512,0.38625 -0.12306,0.4158 -0.21407,0.0881 z m 54.89725,-0.0881 c -0.0238,-0.17941 -0.11369,-0.46516 -0.19975,-0.635 -0.0861,-0.16983 -0.13257,-0.30879 -0.10334,-0.30879 0.0292,0 0.17258,0.10224 0.31857,0.2272 0.28683,0.24551 0.31838,0.37334 0.19859,0.80467 -0.091,0.32772 -0.16283,0.29817 -0.21407,-0.0881 z m -52.15482,-0.49843 c -0.0433,-0.0694 -0.0788,-0.19689 -0.0788,-0.28337 0,-0.25972 0.24256,-0.82598 0.42881,-1.00106 0.23512,-0.22103 0.59278,-0.4304 0.73571,-0.43069 0.10265,-1.9e-4 0.0966,0.0237 -0.0499,0.19787 -0.25842,0.30711 -0.35953,0.54524 -0.42359,0.99761 -0.0325,0.22929 -0.10565,0.46839 -0.16261,0.53133 -0.13672,0.15108 -0.35145,0.14549 -0.44962,-0.0117 z m 49.17684,0.0117 c -0.057,-0.0629 -0.13014,-0.30204 -0.16261,-0.53133 -0.0641,-0.45237 -0.16517,-0.6905 -0.42359,-0.99761 -0.14654,-0.17415 -0.15258,-0.19808 -0.0499,-0.19787 0.14293,3.1e-4 0.50059,0.20966 0.73571,0.43069 0.19228,0.18074 0.42995,0.74658 0.42679,1.01608 -0.004,0.35359 -0.31172,0.51723 -0.52637,0.28004 z m -51.47811,-1.11897 c 0,-0.0195 0.0974,-0.16305 0.21638,-0.31896 0.2025,-0.26528 0.35512,-0.72595 0.35512,-1.07187 0,-0.32501 0.35842,-0.54793 0.5588,-0.34755 0.10713,0.10713 0.0948,0.58188 -0.0224,0.86246 -0.11279,0.27002 -0.35499,0.5421 -0.63163,0.70955 -0.21262,0.1287 -0.47625,0.22079 -0.47625,0.16637 z m 53.87975,-0.0937 c -0.3139,-0.14565 -0.62858,-0.47004 -0.75878,-0.7822 -0.11708,-0.2807 -0.12934,-0.75539 -0.0223,-0.86246 0.20038,-0.20038 0.5588,0.0225 0.5588,0.34755 0,0.34592 0.15262,0.80659 0.35512,1.07187 0.30356,0.39769 0.28964,0.42128 -0.13287,0.22524 z m -52.91346,-0.30799 c 0.40004,-0.78171 0.45738,-1.05583 0.33301,-1.59211 -0.092,-0.3968 -0.0908,-0.42817 0.0225,-0.58049 0.15385,-0.20689 0.33696,-0.23266 0.48566,-0.0684 0.15523,0.17153 0.20843,0.52134 0.14797,0.97292 -0.0555,0.41489 -0.17859,0.69321 -0.42275,0.95621 -0.21026,0.22648 -0.64523,0.46598 -0.56634,0.31183 z m 52.08796,-0.0263 c -0.2254,-0.12436 -0.4848,-0.39633 -0.6098,-0.63936 -0.14635,-0.28452 -0.23509,-0.87898 -0.18024,-1.20738 0.0786,-0.47084 0.40323,-0.62205 0.64304,-0.29956 0.11326,0.15232 0.11447,0.18369 0.0225,0.58049 -0.12437,0.53628 -0.067,0.8104 0.33301,1.59211 0.0346,0.0676 -0.0599,0.0557 -0.20846,-0.0263 z m -51.27625,-0.19981 c 0,-0.0183 0.0774,-0.18569 0.17194,-0.37192 0.26806,-0.52786 0.27352,-1.03603 0.0176,-1.64034 -0.27812,-0.65682 -0.28857,-0.7265 -0.13228,-0.88279 0.37645,-0.37645 0.79671,0.0979 0.95443,1.07725 0.11073,0.68756 -0.11603,1.3084 -0.59771,1.63647 -0.21205,0.14442 -0.41401,0.23288 -0.41401,0.18133 z m 50.32059,-0.14337 c -0.53784,-0.34975 -0.77546,-0.95322 -0.65931,-1.67443 0.0837,-0.51976 0.23029,-0.8927 0.41962,-1.06759 0.19321,-0.17845 0.36295,-0.18152 0.53481,-0.01 0.15629,0.15629 0.14584,0.22597 -0.13228,0.88279 -0.25589,0.60431 -0.25043,1.11248 0.0176,1.64034 0.0946,0.18623 0.17194,0.35053 0.17194,0.36513 0,0.0618 -0.11723,0.0163 -0.35241,-0.13658 z m -49.32567,-0.57478 c 0.29541,-0.58697 0.28428,-0.84367 -0.0794,-1.83126 -0.16005,-0.4346 -0.2814,-0.84005 -0.26966,-0.901 0.0173,-0.0897 0.17876,-0.13719 0.84663,-0.24907 0.4539,-0.076 0.92529,-0.18034 1.04753,-0.2318 0.24319,-0.10238 0.62573,-0.49324 0.80603,-0.82356 l 0.11472,-0.21017 0.02,0.28034 c 0.0422,0.59037 -0.65175,1.43922 -1.39189,1.7026 l -0.29235,0.10403 0.007,0.63926 c 0.007,0.69842 -0.0957,1.09032 -0.39024,1.48605 -0.13833,0.18587 -0.48785,0.45406 -0.59262,0.45473 -0.0203,1.3e-4 0.0583,-0.18894 0.17463,-0.42015 z m 48.62181,0.29856 c -0.50603,-0.30856 -0.75619,-0.91787 -0.74688,-1.81919 l 0.007,-0.63926 -0.29235,-0.10403 c -0.74014,-0.26338 -1.43408,-1.11223 -1.39189,-1.7026 l 0.02,-0.28034 0.11472,0.21017 c 0.1803,0.33032 0.56284,0.72118 0.80603,0.82356 0.12224,0.0515 0.59363,0.15577 1.04753,0.2318 0.66974,0.11219 0.82933,0.15924 0.84673,0.24961 0.0118,0.0613 -0.10006,0.43121 -0.24858,0.82212 -0.37398,0.98436 -0.39344,1.3335 -0.10598,1.90136 0.11933,0.23575 0.20034,0.42852 0.18001,0.42839 -0.0203,-1.2e-4 -0.12652,-0.0548 -0.23598,-0.12159 z m -48.00049,-0.29419 c 0.28508,-0.67826 0.42732,-1.21836 0.39924,-1.51597 -0.0167,-0.17724 -0.0515,-0.37227 -0.0772,-0.43339 -0.035,-0.0829 -0.0167,-0.11112 0.072,-0.11112 0.32266,0 1.15053,-0.66394 1.39583,-1.11943 0.15738,-0.29225 0.23341,-0.2688 0.18092,0.0558 -0.0747,0.46154 -0.26758,0.80535 -0.66457,1.18429 -0.2787,0.26601 -0.38245,0.41049 -0.38245,0.53256 0,0.24358 -0.23857,0.84269 -0.42269,1.06151 -0.0873,0.10381 -0.24753,0.25192 -0.35595,0.32912 -0.18385,0.13091 -0.19362,0.13203 -0.14512,0.0166 z m 47.10187,-0.19781 c -0.32255,-0.31482 -0.58511,-0.85754 -0.58511,-1.20945 0,-0.12207 -0.10375,-0.26655 -0.38245,-0.53256 -0.39699,-0.37894 -0.58992,-0.72275 -0.66457,-1.18429 -0.0525,-0.3246 0.0235,-0.34805 0.18092,-0.0558 0.24428,0.45359 1.07302,1.11943 1.39331,1.11943 0.0937,0 0.10625,0.0278 0.0644,0.14287 -0.11584,0.3189 -0.048,0.95408 0.15732,1.47302 0.10981,0.27755 0.18863,0.51568 0.17513,0.52917 -0.0135,0.0135 -0.16604,-0.11358 -0.33899,-0.28239 z m -47.76561,-3.00567 c -0.15663,-0.15663 -0.16378,-0.39229 -0.0159,-0.5231 0.0611,-0.0541 0.29687,-0.11757 0.52388,-0.14115 0.82852,-0.086 1.25996,-0.33588 1.75875,-1.0185 l 0.13919,-0.1905 0.004,0.36765 c 0.007,0.76661 -0.48063,1.27317 -1.48872,1.54536 -0.46075,0.12441 -0.76993,0.11106 -0.92075,-0.0398 z m 47.8155,0.0352 c -0.98368,-0.27691 -1.46422,-0.7851 -1.45697,-1.54081 l 0.004,-0.36765 0.1392,0.1905 c 0.49878,0.68262 0.93022,0.93247 1.75874,1.0185 0.45146,0.0469 0.635,0.15913 0.635,0.38834 0,0.36927 -0.43131,0.49358 -1.0795,0.31112 z m -44.6405,-0.89499 c 0,-0.57442 0.1234,-0.86004 0.51724,-1.19715 0.28373,-0.24286 0.49449,-0.28777 0.64485,-0.1374 0.167,0.16699 0.0518,0.4032 -0.34577,0.70914 -0.35862,0.27596 -0.68932,0.75897 -0.68932,1.00683 0,0.0536 -0.0286,0.0974 -0.0635,0.0974 -0.0367,0 -0.0635,-0.20193 -0.0635,-0.47878 z m 42.291,0.38142 c 0,-0.24786 -0.3307,-0.73087 -0.68932,-1.00683 -0.39759,-0.30594 -0.51277,-0.54215 -0.34577,-0.70914 0.15036,-0.15037 0.36112,-0.10546 0.64485,0.1374 0.39384,0.33711 0.51724,0.62273 0.51724,1.19715 0,0.27685 -0.0268,0.47878 -0.0635,0.47878 -0.0349,0 -0.0635,-0.0438 -0.0635,-0.0974 z m -44.99797,-0.50952 c -0.10048,-0.15336 -0.0997,-0.17142 0.0148,-0.32469 0.0722,-0.0967 0.28454,-0.22145 0.52504,-0.30853 0.44419,-0.16084 0.7586,-0.42424 1.00553,-0.84239 0.0886,-0.15001 0.17552,-0.25828 0.1932,-0.24061 0.0177,0.0177 0.0296,0.15985 0.0264,0.31594 -0.0111,0.55428 -0.41798,1.12521 -1.02112,1.43291 -0.35545,0.18134 -0.61101,0.17013 -0.74386,-0.0326 z m 46.99328,-0.0238 c -0.37411,-0.21457 -0.68435,-0.54542 -0.82329,-0.87795 -0.094,-0.22485 -0.14314,-0.74796 -0.0766,-0.81451 0.0177,-0.0177 0.10462,0.0906 0.1932,0.24061 0.24693,0.41815 0.56134,0.68155 1.00553,0.84239 0.2405,0.0871 0.45288,0.21188 0.52504,0.30853 0.11443,0.15327 0.11525,0.17133 0.0148,0.32469 -0.14442,0.22041 -0.42691,0.21241 -0.83866,-0.0238 z m -44.41331,-0.74631 c 0,-0.17142 0.0559,-0.41298 0.13199,-0.5701 0.15394,-0.318 0.67419,-0.80878 0.9712,-0.91618 0.1636,-0.0592 0.22845,-0.13647 0.31214,-0.3721 0.24164,-0.68036 0.75841,-1.1436 1.33261,-1.19456 l 0.33181,-0.0295 -0.36697,0.3314 c -0.41442,0.37425 -0.53166,0.56465 -0.59242,0.96216 -0.0833,0.5447 -0.32889,0.82269 -0.89271,1.01032 -0.42666,0.14198 -0.6563,0.32896 -0.97769,0.7961 -0.10591,0.15393 -0.20548,0.27987 -0.22126,0.27987 -0.0158,0 -0.0287,-0.13385 -0.0287,-0.29745 z m 42.43487,0.0334 c -0.33725,-0.48562 -0.56098,-0.66903 -0.99052,-0.81197 -0.56382,-0.18763 -0.80945,-0.46562 -0.89271,-1.01032 -0.0608,-0.39751 -0.178,-0.58791 -0.59242,-0.96216 l -0.36697,-0.3314 0.33181,0.0295 c 0.5742,0.051 1.09097,0.5142 1.33261,1.19456 0.0837,0.23563 0.14854,0.31294 0.31214,0.3721 0.29974,0.10839 0.81778,0.59926 0.97485,0.92372 0.095,0.19619 0.12979,0.37185 0.11611,0.58597 l -0.0195,0.30579 z m -44.451,-0.18656 c -0.10469,-0.0391 -0.14287,-0.10441 -0.14287,-0.24442 0,-0.15414 0.063,-0.24085 0.32594,-0.4487 0.39699,-0.31381 0.52703,-0.47439 0.70404,-0.86943 l 0.13651,-0.30464 0.0502,0.22225 c 0.10648,0.47187 -0.0785,1.07372 -0.43295,1.40884 -0.23246,0.21976 -0.46003,0.30361 -0.64082,0.2361 z m 46.40263,-0.006 c -0.52995,-0.19656 -0.91379,-1.01138 -0.77214,-1.6391 l 0.0502,-0.22225 0.13651,0.30464 c 0.17734,0.39577 0.30699,0.55558 0.70774,0.87235 0.28558,0.22574 0.32702,0.28663 0.31006,0.45568 -0.0228,0.22735 -0.19307,0.31742 -0.43232,0.22868 z m -44.577,-0.72563 c 0,-0.43447 0.21151,-0.85911 0.55937,-1.12305 0.12891,-0.0978 0.33439,-0.32641 0.45663,-0.508 0.26279,-0.3904 0.75926,-0.67942 1.16706,-0.67942 h 0.25529 l -0.34621,0.30857 c -0.34972,0.31171 -0.63164,0.76553 -0.63164,1.01681 0,0.10379 -0.0803,0.17241 -0.33337,0.28489 -0.35337,0.15705 -0.65763,0.42765 -0.92044,0.8186 -0.088,0.13097 -0.17056,0.23813 -0.18338,0.23813 -0.0128,0 -0.0233,-0.16044 -0.0233,-0.35653 z m 42.85356,0.13428 c -0.26601,-0.40293 -0.5681,-0.67467 -0.92769,-0.83448 -0.25306,-0.11248 -0.33337,-0.1811 -0.33337,-0.28489 0,-0.25128 -0.28192,-0.7051 -0.63164,-1.01681 l -0.34621,-0.30857 h 0.25529 c 0.4078,0 0.90427,0.28902 1.16706,0.67942 0.12224,0.18159 0.32772,0.41019 0.45663,0.508 0.36831,0.27945 0.5698,0.70137 0.5467,1.14482 l -0.0191,0.36651 z m -42.98056,-0.81419 c 0,-0.76412 0.7831,-1.63484 1.46467,-1.62855 l 0.21808,0.002 -0.1905,0.13719 c -0.10478,0.0754 -0.29051,0.24886 -0.41275,0.38535 -0.12224,0.1365 -0.34427,0.37616 -0.4934,0.53259 -0.14913,0.15642 -0.32831,0.39644 -0.39816,0.53338 -0.0699,0.13693 -0.14073,0.24897 -0.15748,0.24897 -0.0168,0 -0.0305,-0.0949 -0.0305,-0.21094 z m 43.13328,-0.0222 c -0.0777,-0.14566 -0.26325,-0.39283 -0.41238,-0.54926 -0.14913,-0.15642 -0.37116,-0.39608 -0.4934,-0.53258 -0.12224,-0.13649 -0.30798,-0.3099 -0.41275,-0.38535 l -0.1905,-0.13719 0.21808,-0.002 c 0.6967,-0.006 1.52341,0.93954 1.45264,1.66221 l -0.0205,0.20903 -0.14123,-0.26485 z m -40.39008,-0.1606 c -0.24492,-0.24492 0.12243,-0.86252 0.68175,-1.14618 0.25823,-0.13096 0.43277,-0.17369 0.69806,-0.17089 0.29823,0.003 0.3352,0.0156 0.2356,0.0794 -0.065,0.0416 -0.24284,0.15643 -0.39526,0.25518 -0.1726,0.11183 -0.36337,0.32152 -0.50579,0.55596 -0.2884,0.47475 -0.52493,0.61598 -0.71436,0.42655 z m 37.44049,0.01 c -0.0589,-0.0344 -0.20963,-0.23129 -0.33499,-0.43766 -0.14173,-0.23331 -0.33272,-0.44309 -0.50505,-0.55474 -0.15242,-0.0988 -0.33028,-0.21358 -0.39526,-0.25518 -0.0996,-0.0638 -0.0626,-0.0762 0.2356,-0.0794 0.46758,-0.005 0.96427,0.24172 1.2492,0.62033 0.36088,0.47954 0.19015,0.96308 -0.2495,0.70663 z m -40.24386,-0.70743 c -0.005,-0.33224 0.0907,-0.53984 0.29557,-0.6429 0.16944,-0.0852 0.5901,-0.19017 0.5901,-0.14719 0,0.0113 -0.15121,0.17487 -0.33602,0.36354 -0.18481,0.18867 -0.38334,0.41448 -0.44117,0.50179 l -0.10515,0.15875 -0.003,-0.23399 z m 43.25562,0.004 c -0.0788,-0.12674 -0.27386,-0.35078 -0.43345,-0.49788 -0.15958,-0.14711 -0.28004,-0.27758 -0.26767,-0.28995 0.0438,-0.0438 0.50031,0.0863 0.65239,0.18591 0.15892,0.10413 0.25269,0.4034 0.21341,0.68115 -0.0202,0.14288 -0.0293,0.13853 -0.16468,-0.0792 z m -39.08702,-1.54544 c 0.21096,-0.19091 0.42957,-0.44406 0.4858,-0.56255 0.0648,-0.13653 0.12732,-0.55011 0.17072,-1.12926 0.0377,-0.50261 0.0938,-0.93936 0.12467,-0.97056 0.0329,-0.0332 0.37678,0.0281 0.83056,0.14817 0.42591,0.1127 0.92147,0.20622 1.10125,0.20784 0.34368,0.003 0.76648,-0.1652 1.03644,-0.41253 0.20191,-0.18497 0.23761,-0.10117 0.0847,0.19867 -0.26324,0.51599 -0.89329,0.83824 -1.74734,0.89372 l -0.56756,0.0369 -0.0776,0.30497 c -0.17213,0.67662 -0.72746,1.3361 -1.29317,1.53569 -0.52816,0.18635 -0.56427,0.12528 -0.14844,-0.25102 z m 0.79229,0.0315 c 0.43307,-0.38599 0.73954,-0.84979 0.80156,-1.21306 l 0.0465,-0.27268 0.38286,0.0156 c 0.41696,0.017 0.94175,-0.14216 1.38318,-0.41956 0.13427,-0.0844 0.26086,-0.13667 0.28131,-0.11622 0.0205,0.0205 -0.0476,0.15824 -0.15134,0.30621 -0.21261,0.30338 -0.74579,0.65208 -1.15668,0.75646 -0.2083,0.0529 -0.30959,0.12522 -0.41962,0.29952 -0.3009,0.47665 -0.98244,0.95446 -1.36634,0.9579 -0.13793,10e-4 -0.11543,-0.0344 0.19852,-0.31419 z m 33.28583,0.19351 c -0.32007,-0.14535 -0.75224,-0.52697 -0.94809,-0.83722 -0.11003,-0.1743 -0.21132,-0.2466 -0.41962,-0.29952 -0.41089,-0.10438 -0.94407,-0.45308 -1.15668,-0.75646 -0.10369,-0.14797 -0.17179,-0.28576 -0.15134,-0.30621 0.0205,-0.0204 0.14704,0.0319 0.28131,0.11622 0.44143,0.2774 0.96622,0.43658 1.38318,0.41956 l 0.38286,-0.0156 0.0466,0.27268 c 0.062,0.36327 0.36849,0.82707 0.80156,1.21306 0.31395,0.27982 0.33645,0.31542 0.19852,0.31419 -0.0856,-7.7e-4 -0.27376,-0.0551 -0.41825,-0.12068 z m 0.84093,0.0225 c -0.54642,-0.20025 -1.10217,-0.87048 -1.27052,-1.53222 l -0.0776,-0.30497 -0.56756,-0.0369 c -0.85405,-0.0555 -1.4841,-0.37773 -1.74734,-0.89372 -0.15296,-0.29984 -0.11726,-0.38364 0.0846,-0.19867 0.26996,0.24733 0.69276,0.41561 1.03644,0.41253 0.17978,-0.002 0.67534,-0.0951 1.10125,-0.20784 0.45378,-0.12006 0.79764,-0.18141 0.83056,-0.14817 0.0309,0.0312 0.087,0.46795 0.12467,0.97056 0.0434,0.57915 0.10593,0.99273 0.17072,1.12926 0.0562,0.11849 0.27484,0.37164 0.4858,0.56255 0.33138,0.29989 0.36266,0.3465 0.22988,0.34264 -0.0845,-0.002 -0.26497,-0.0453 -0.40097,-0.0951 z m -35.92701,-0.16102 c 0.29605,-0.21772 0.58634,-0.60764 0.69946,-0.93952 0.0405,-0.11872 0.0736,-0.44812 0.0736,-0.732 0,-0.60287 0.0931,-0.7984 0.38007,-0.7984 0.36947,0 0.48875,0.30826 0.38311,0.99004 -0.0844,0.54479 -0.38714,1.18272 -0.65588,1.38213 -0.26025,0.1931 -0.56777,0.29483 -0.89129,0.29483 h -0.25703 z m 36.61878,0.12046 c -0.52725,-0.1843 -0.92309,-0.78824 -1.04893,-1.60034 -0.10564,-0.68178 0.0136,-0.99004 0.38311,-0.99004 0.28699,0 0.38007,0.19553 0.38007,0.7984 0,0.28388 0.0331,0.61328 0.0736,0.732 0.11312,0.33188 0.40341,0.7218 0.69946,0.93952 l 0.26799,0.19708 -0.28239,-0.005 c -0.15531,-0.003 -0.36811,-0.035 -0.47288,-0.0716 z m -37.68589,-0.0273 c 7.4e-4,-0.0301 0.11747,-0.13701 0.25939,-0.23745 0.37782,-0.26739 0.61272,-0.62817 0.70093,-1.07653 0.0763,-0.38794 0.27054,-0.6776 0.45434,-0.6776 0.15935,0 0.31941,0.2446 0.31075,0.47488 -0.0166,0.44231 -0.50893,1.16265 -0.95074,1.39111 -0.21286,0.11008 -0.77655,0.20147 -0.77467,0.12559 z m 38.74825,-0.0218 c -0.76629,-0.18171 -1.51733,-1.41019 -1.12629,-1.84229 0.0635,-0.0701 0.1551,-0.12747 0.20366,-0.12747 0.1838,0 0.37802,0.28966 0.45434,0.6776 0.0882,0.44836 0.32311,0.80914 0.70093,1.07653 0.14192,0.10044 0.25865,0.20405 0.25939,0.23024 0.002,0.0581 -0.21244,0.0517 -0.49203,-0.0146 z m -39.60686,-0.13821 c 0.34431,-0.17804 0.57817,-0.40223 0.83799,-0.8033 0.22957,-0.3544 0.42421,-0.47907 0.60233,-0.38581 0.3835,0.20078 -0.0447,0.96199 -0.69374,1.23316 -0.12229,0.0511 -0.39744,0.0916 -0.61146,0.0901 l -0.38912,-0.003 0.254,-0.13134 z m 40.13562,0.007 c -0.32814,-0.16371 -0.52759,-0.35489 -0.67968,-0.65151 -0.13343,-0.26022 -0.11164,-0.45407 0.0612,-0.54457 0.17812,-0.0933 0.37276,0.0314 0.60233,0.38581 0.25982,0.40107 0.49368,0.62526 0.83799,0.8033 l 0.254,0.13134 -0.41275,2.5e-4 c -0.28372,1.9e-4 -0.49102,-0.0388 -0.66313,-0.12464 z m -32.86487,-2.00902 c 0,-0.18617 0.22622,-0.67388 0.41475,-0.89412 0.43878,-0.51262 1.36325,-0.64975 1.36325,-0.20221 0,0.11977 -0.27988,0.37783 -0.40979,0.37783 -0.28454,0 -0.78008,0.22926 -1.05855,0.48973 -0.17031,0.15931 -0.30966,0.26225 -0.30966,0.22877 z m 26.15766,-0.18512 c -0.26685,-0.27763 -0.43244,-0.36724 -0.90823,-0.49149 -0.39923,-0.10425 -0.61143,-0.25173 -0.61143,-0.42496 0,-0.44343 0.92774,-0.30135 1.36456,0.20898 0.19726,0.23045 0.46617,0.84102 0.39969,0.9075 -0.0147,0.0147 -0.12474,-0.0753 -0.24459,-0.20003 z m -28.60016,-0.38154 c -0.53038,-0.12825 -0.669,-0.23208 -0.669,-0.50109 0,-0.1621 0.0402,-0.24566 0.15407,-0.32028 0.14359,-0.0941 0.18922,-0.0899 0.67003,0.062 0.78568,0.24819 1.27195,0.19773 1.8646,-0.19349 0.13417,-0.0886 0.25754,-0.14745 0.27415,-0.13084 0.0166,0.0166 -0.0428,0.17414 -0.13191,0.35007 -0.36259,0.71555 -1.14232,0.98013 -2.16194,0.73359 z m 30.01558,0.009 c -0.39123,-0.12216 -0.69079,-0.3759 -0.87652,-0.74242 -0.0892,-0.17593 -0.14851,-0.33346 -0.13191,-0.35007 0.0166,-0.0166 0.13998,0.0423 0.27415,0.13084 0.59265,0.39122 1.07892,0.44168 1.8646,0.19349 0.48081,-0.15189 0.52644,-0.15611 0.67003,-0.062 0.11387,0.0746 0.15407,0.15818 0.15407,0.32028 0,0.26754 -0.12829,0.36307 -0.67592,0.50333 -0.46712,0.11963 -0.9092,0.12191 -1.2785,0.007 z m -27.25558,-0.50984 c 0,-0.29851 0.44013,-0.77878 0.89972,-0.98177 0.16306,-0.072 0.45705,-0.14229 0.65331,-0.15616 0.31422,-0.0222 0.39124,-0.0569 0.64487,-0.29072 0.39806,-0.36691 0.79358,-0.53447 1.26285,-0.535 0.20955,-2.6e-4 0.45244,0.0394 0.53975,0.0882 0.15744,0.0879 0.15586,0.0895 -0.1905,0.19324 -0.58714,0.17591 -0.81988,0.31748 -1.03106,0.62714 -0.36614,0.5369 -0.62955,0.66504 -1.25494,0.61051 -0.40578,-0.0354 -0.52322,-0.0214 -0.79368,0.0949 -0.17459,0.075 -0.41033,0.20727 -0.52387,0.29388 -0.16602,0.12663 -0.20645,0.13756 -0.20645,0.0558 z m 25.65463,6.8e-4 c -0.0445,-0.0537 -0.26559,-0.18567 -0.49125,-0.29336 -0.38532,-0.1839 -0.43985,-0.19321 -0.89645,-0.1531 -0.62786,0.0552 -0.92204,-0.0821 -1.23158,-0.57461 -0.20368,-0.32408 -0.37236,-0.43463 -0.94879,-0.62178 -0.44597,-0.1448 -0.45478,-0.15165 -0.30331,-0.23552 0.0858,-0.0475 0.32745,-0.0862 0.537,-0.086 0.46927,5.1e-4 0.86479,0.16809 1.26285,0.53501 0.25294,0.23315 0.33112,0.26854 0.64169,0.29049 0.19451,0.0137 0.49498,0.0858 0.66772,0.1601 0.34743,0.14946 0.7978,0.59355 0.86221,0.85018 0.051,0.20327 0.008,0.25866 -0.10009,0.12855 z m -27.94063,-0.2645 c -0.3337,-0.13517 -0.41928,-0.46039 -0.16499,-0.62701 0.12135,-0.0795 0.24887,-0.0912 0.62414,-0.0572 0.50397,0.0457 0.82066,-0.0443 1.2618,-0.3584 0.26027,-0.18533 0.30456,-0.10693 0.12781,0.22624 -0.23516,0.44328 -0.78866,0.76532 -1.41545,0.82354 -0.18593,0.0173 -0.38092,0.014 -0.43331,-0.007 z m 29.63764,-0.0244 c -0.54112,-0.13482 -1.0283,-0.49713 -1.18849,-0.88387 -0.10764,-0.25986 -0.0514,-0.30119 0.1829,-0.13437 0.44114,0.31411 0.75783,0.40407 1.2618,0.3584 0.53786,-0.0487 0.77665,0.0449 0.77665,0.30456 0,0.32192 -0.49012,0.49051 -1.03286,0.35528 z m -24.26735,-0.47844 c -0.13873,-0.13872 -0.12526,-0.24119 0.0608,-0.46228 0.33456,-0.3976 1.20546,-0.51185 1.74731,-0.22921 l 0.21938,0.11443 -0.45148,0.0769 c -0.34044,0.058 -0.55047,0.1412 -0.854,0.33843 -0.43808,0.28466 -0.56962,0.31413 -0.72198,0.16176 z m 18.90149,-0.15945 c -0.29878,-0.20063 -0.49124,-0.27713 -0.8513,-0.33842 l -0.46523,-0.0792 0.21938,-0.11443 c 0.54185,-0.28264 1.41275,-0.16839 1.74731,0.22921 0.18603,0.22109 0.1995,0.32356 0.0608,0.46228 -0.1532,0.15321 -0.29149,0.1222 -0.71093,-0.15945 z m -21.76608,-0.0937 c 0.22173,-0.53069 0.50054,-0.76396 1.12644,-0.94251 0.19904,-0.0568 0.38116,-0.1344 0.40471,-0.17251 0.0831,-0.13443 0.57061,-0.30728 0.87056,-0.30866 0.16702,-7.6e-4 0.40991,0.0446 0.53975,0.10089 l 0.23609,0.10228 -0.38409,0.13584 c -0.48417,0.17125 -0.81464,0.37824 -0.98435,0.61658 -0.11479,0.16121 -0.17288,0.18602 -0.43554,0.18602 -0.38404,0 -0.83709,0.13545 -1.15357,0.34489 -0.13556,0.0897 -0.26176,0.16311 -0.28044,0.16311 -0.0187,0 0.009,-0.10167 0.0604,-0.22593 z m 25.1168,0.0623 c -0.28294,-0.20045 -0.76353,-0.34432 -1.1502,-0.34432 -0.26108,0 -0.31947,-0.025 -0.43411,-0.18602 -0.16971,-0.23834 -0.50018,-0.44533 -0.98435,-0.61658 l -0.38409,-0.13584 0.23609,-0.10228 c 0.12984,-0.0562 0.37273,-0.10165 0.53975,-0.10089 0.29995,0.001 0.78748,0.17423 0.87056,0.30866 0.0236,0.0381 0.20567,0.11574 0.40471,0.17251 0.6259,0.17855 0.90471,0.41182 1.12644,0.94251 0.11073,0.26501 0.0753,0.27483 -0.2248,0.0623 z m -26.97341,-0.19021 c -0.0776,-0.0544 -0.14113,-0.15231 -0.14113,-0.21764 0,-0.14038 0.28507,-0.38201 0.45068,-0.38201 0.26076,0 0.80703,-0.26665 1.06058,-0.51769 0.30814,-0.30508 0.35259,-0.2181 0.13475,0.26369 -0.18137,0.40115 -0.47189,0.67773 -0.86725,0.82565 -0.4081,0.1527 -0.45656,0.15482 -0.63763,0.028 z m 28.40807,-0.0288 c -0.39798,-0.15541 -0.65004,-0.39373 -0.83886,-0.79315 -0.24024,-0.50817 -0.20098,-0.60869 0.1154,-0.29544 0.25355,0.25104 0.79982,0.51769 1.06058,0.51769 0.16561,0 0.45068,0.24163 0.45068,0.38201 0,0.13078 -0.2267,0.31819 -0.37925,0.31352 -0.0533,-0.002 -0.2372,-0.0577 -0.40855,-0.12463 z m -26.3902,-0.50022 c 0,-0.17861 0.44681,-0.68235 0.762,-0.85909 0.30598,-0.17158 0.4098,-0.19584 0.83804,-0.19584 0.56241,0 0.8056,0.12012 0.39261,0.19393 -0.13552,0.0242 -0.44643,0.13597 -0.6909,0.24834 -0.24448,0.11238 -0.5651,0.25567 -0.71249,0.31844 -0.1474,0.0628 -0.31613,0.16732 -0.37497,0.23234 -0.11384,0.12579 -0.21429,0.1548 -0.21429,0.0619 z m 24.80471,-0.0619 c -0.0588,-0.065 -0.22757,-0.16957 -0.37497,-0.23234 -0.14739,-0.0628 -0.46802,-0.20606 -0.71249,-0.31844 -0.24448,-0.11237 -0.55538,-0.22413 -0.6909,-0.24834 -0.41299,-0.0738 -0.1698,-0.19393 0.39261,-0.19393 0.42824,0 0.53206,0.0243 0.83804,0.19584 0.40672,0.22807 0.93858,0.91541 0.70834,0.91541 -0.0295,0 -0.10179,-0.0532 -0.16063,-0.1182 z m -19.31196,0.0235 c -0.0349,-0.0117 -0.14923,-0.0408 -0.254,-0.0648 -0.17815,-0.0408 -0.15958,-0.0546 0.28628,-0.21314 0.60185,-0.21397 0.89189,-0.39318 1.16138,-0.71761 l 0.21338,-0.25688 0.28073,0.14971 c 0.25074,0.13371 0.36335,0.1497 1.05408,0.1497 0.71607,0 0.76629,0.008 0.6781,0.10525 -0.0524,0.0579 -0.24044,0.16771 -0.41789,0.24405 -0.26946,0.11592 -0.41785,0.13551 -0.90035,0.11886 -0.53824,-0.0186 -0.59836,-0.008 -0.87997,0.15924 -0.44917,0.26624 -0.97758,0.40709 -1.22174,0.32564 z m 13.38491,-0.0578 c -0.14717,-0.0477 -0.40434,-0.16779 -0.5715,-0.26687 -0.2835,-0.16803 -0.34271,-0.17879 -0.88162,-0.1602 -0.4825,0.0166 -0.63089,-0.003 -0.90035,-0.11886 -0.17745,-0.0763 -0.3655,-0.18616 -0.41789,-0.24405 -0.0882,-0.0974 -0.038,-0.10525 0.6781,-0.10525 0.6854,0 0.80447,-0.0166 1.04699,-0.14609 l 0.27363,-0.14608 0.29787,0.31353 c 0.32329,0.34029 0.60408,0.5035 1.17299,0.68179 0.40982,0.12843 0.38054,0.18985 -0.11649,0.24435 -0.18762,0.0206 -0.42191,-5e-4 -0.58173,-0.0523 z m -14.23217,-0.2903 c -0.29154,-0.0708 -0.40764,-0.19218 -0.18382,-0.19218 0.31232,0 0.85394,-0.25 1.07734,-0.49728 0.11818,-0.13081 0.37803,-0.55681 0.57745,-0.94666 0.19941,-0.38985 0.39236,-0.72723 0.42878,-0.74974 0.0731,-0.0452 0.32478,0.12463 0.94773,0.63943 0.62681,0.51799 0.87969,0.62456 1.3883,0.58506 0.23181,-0.018 0.47539,-0.0547 0.54127,-0.0816 0.23023,-0.094 0.07,0.12422 -0.22581,0.30755 -0.53308,0.33037 -1.4867,0.29038 -2.14042,-0.0898 l -0.21444,-0.12469 -0.0986,0.14549 c -0.44973,0.66351 -1.47674,1.15525 -2.09777,1.00442 z m 15.08688,-0.006 c -0.51682,-0.12477 -1.16595,-0.56982 -1.45663,-0.99867 l -0.0986,-0.14549 -0.21444,0.12469 c -0.65372,0.38014 -1.60734,0.42013 -2.14042,0.0898 -0.29582,-0.18333 -0.45604,-0.40155 -0.22581,-0.30755 0.0659,0.0269 0.30946,0.0636 0.54127,0.0816 0.50861,0.0395 0.76149,-0.0671 1.3883,-0.58506 0.62295,-0.5148 0.87463,-0.68461 0.94773,-0.63943 0.0364,0.0225 0.22847,0.35813 0.42678,0.74583 0.19832,0.3877 0.4488,0.8054 0.55664,0.92822 0.21606,0.24608 0.59409,0.43775 1.00695,0.51054 0.23844,0.042 0.25435,0.0551 0.14162,0.1161 -0.19517,0.10564 -0.60893,0.14326 -0.87338,0.0794 z m -10.07356,-0.44427 c 0.0911,-0.12013 0.2864,-0.30414 0.4341,-0.40891 0.24614,-0.17462 0.31226,-0.1905 0.79305,-0.1905 0.59166,0 0.73454,0.0697 0.73454,0.3586 0,0.26573 -0.19503,0.32123 -0.81258,0.23122 -0.50155,-0.0731 -0.64087,-0.0526 -1.18767,0.17511 -0.11153,0.0464 -0.10683,0.0263 0.0386,-0.16552 z m 5.58119,0.1 c -0.2501,-0.1416 -0.65913,-0.17951 -1.10293,-0.10223 -0.5266,0.0917 -0.73857,0.0232 -0.73857,-0.23854 0,-0.28885 0.14288,-0.3586 0.73454,-0.3586 0.48079,0 0.54691,0.0159 0.79305,0.1905 0.2689,0.19076 0.63332,0.60523 0.52842,0.601 -0.0307,-0.001 -0.1272,-0.0427 -0.21451,-0.0921 z m -11.47763,-0.0483 c -0.27074,-0.0868 -0.26086,-0.15059 0.0317,-0.20487 0.13097,-0.0243 0.40684,-0.13382 0.61304,-0.24338 0.40258,-0.21391 0.66115,-0.54271 0.90022,-1.14471 0.19588,-0.49326 0.6365,-0.60123 0.79136,-0.19391 0.13884,0.36518 -0.58153,1.4512 -1.15752,1.74505 -0.26304,0.13419 -0.82838,0.15425 -1.17885,0.0418 z m 16.30173,-0.045 c -0.57074,-0.30184 -1.28044,-1.3826 -1.14384,-1.74189 0.15486,-0.40732 0.59548,-0.29935 0.79136,0.19391 0.23907,0.602 0.49764,0.9308 0.90022,1.14471 0.2062,0.10956 0.48207,0.21909 0.61303,0.24338 0.30373,0.0563 0.30157,0.11793 -0.007,0.21049 -0.36646,0.10979 -0.89387,0.0866 -1.15341,-0.0506 z m -19.80799,0.013 c 0.001,-0.0262 0.0809,-0.16192 0.17723,-0.30162 0.15317,-0.22215 0.20999,-0.25651 0.45317,-0.27405 0.15293,-0.011 0.34581,-0.003 0.42862,0.0177 0.16991,0.0426 0.13736,0.16107 -0.0443,0.16107 -0.0652,0 -0.31052,0.10001 -0.54503,0.22225 -0.46298,0.24132 -0.47285,0.24499 -0.46973,0.17462 z m 24.09614,-0.1456 c -0.17463,-0.10275 -0.41068,-0.20457 -0.52458,-0.22625 -0.45294,-0.0862 -0.22042,-0.2417 0.30482,-0.20382 0.24318,0.0175 0.3,0.0519 0.45317,0.27405 0.28329,0.41089 0.24417,0.43705 -0.23341,0.15602 z m -12.47775,-0.36933 c -0.43843,-0.23413 -0.81567,-0.28421 -1.37931,-0.18311 -0.33219,0.0596 -0.31842,-0.0497 0.0373,-0.2962 0.46182,-0.32004 1.26331,-0.35192 1.80338,-0.0717 0.14987,0.0778 0.19733,0.0778 0.3472,0 0.54007,-0.28019 1.34156,-0.24831 1.80338,0.0717 0.35575,0.24653 0.36952,0.35579 0.0373,0.2962 -0.56716,-0.10173 -0.94783,-0.0545 -1.33176,0.16513 -0.5105,0.29208 -0.79697,0.29599 -1.31755,0.018 z m -8.84238,0.10776 c -0.096,-0.0351 -0.17458,-0.0828 -0.17453,-0.10612 5e-5,-0.0233 0.17324,-0.0932 0.38486,-0.1554 0.51042,-0.15 0.76938,-0.32888 1.01148,-0.69869 0.24075,-0.36776 0.45794,-0.47427 0.67589,-0.33146 0.54562,0.3575 -0.54571,1.37751 -1.45558,1.36046 -0.14712,-0.003 -0.34607,-0.0337 -0.44212,-0.0688 z m 17.86335,-0.0654 c -0.45627,-0.17518 -0.95647,-0.66458 -0.95647,-0.93582 0,-0.13187 0.0471,-0.2229 0.15018,-0.29046 0.21795,-0.14281 0.43514,-0.0363 0.67589,0.33146 0.2421,0.36981 0.50106,0.54869 1.01148,0.69869 0.21162,0.0622 0.38481,0.13171 0.38486,0.15448 1.9e-4,0.0748 -0.39458,0.18091 -0.66026,0.17753 -0.14322,-0.002 -0.41577,-0.063 -0.60568,-0.13588 z m -18.52245,-0.26885 c -0.14422,-0.0451 -0.32917,-0.12894 -0.411,-0.18625 -0.14658,-0.10267 -0.14412,-0.10425 0.16698,-0.107 0.38121,-0.003 0.69784,-0.10943 0.98851,-0.33113 0.45569,-0.34757 0.81949,-0.34263 0.81949,0.0111 0,0.23344 -0.29824,0.48169 -0.73748,0.61388 -0.35703,0.10745 -0.48132,0.10736 -0.8265,-6.4e-4 z m 19.42156,5e-4 c -0.42117,-0.13662 -0.71258,-0.3876 -0.71258,-0.61374 0,-0.13818 0.0386,-0.20372 0.14287,-0.24266 0.17754,-0.0663 0.33675,-0.008 0.74632,0.27387 0.29767,0.20476 0.47998,0.25818 1.04756,0.30695 0.18891,0.0162 0.18809,0.0176 -0.0983,0.1587 -0.37503,0.18483 -0.78515,0.2274 -1.12587,0.11688 z m -13.55681,-0.25418 c -0.34137,-0.14038 -0.86323,-0.50253 -1.0464,-0.72615 -0.11014,-0.13447 -0.0993,-0.42467 0.0204,-0.54434 0.17868,-0.17869 0.38251,-0.11515 0.80076,0.24963 0.22036,0.19218 0.50079,0.39797 0.62317,0.45731 0.27066,0.13123 1.00356,0.18476 1.26793,0.0926 0.26362,-0.0919 0.2419,0.001 -0.0607,0.26027 -0.45689,0.39107 -0.99482,0.46168 -1.60521,0.21067 z m 7.39193,0.0668 c -0.22789,-0.0825 -0.7072,-0.45411 -0.7072,-0.54834 0,-0.0311 0.0868,-0.0264 0.19285,0.0106 0.26437,0.0922 0.99727,0.0386 1.26793,-0.0926 0.12238,-0.0593 0.40281,-0.26513 0.62317,-0.45731 0.41825,-0.36478 0.62208,-0.42832 0.80076,-0.24963 0.1197,0.11969 0.13051,0.40918 0.0204,0.54629 -0.17832,0.22208 -0.76787,0.62293 -1.09762,0.74631 -0.39033,0.14604 -0.77682,0.16173 -1.1003,0.0447 z m -3.33509,-0.32518 c -0.22074,-0.16713 -0.76859,-0.2501 -1.1675,-0.1768 -0.20012,0.0368 -0.37539,0.0561 -0.38949,0.043 -0.0141,-0.0131 0.0805,-0.12397 0.21019,-0.2463 0.32482,-0.30635 0.81929,-0.4478 1.24569,-0.35635 0.22394,0.048 0.40806,0.048 0.632,0 0.4264,-0.0915 0.92087,0.05 1.24569,0.35635 0.1297,0.12233 0.22352,0.23472 0.20847,0.24977 -0.015,0.015 -0.15517,-0.002 -0.31138,-0.038 -0.36359,-0.0837 -0.82939,-0.0303 -1.16864,0.13389 -0.31328,0.15166 -0.34723,0.15398 -0.50503,0.0345 z m -3.4465,-0.41069 c -0.25098,-0.0598 -0.59118,-0.25619 -0.67513,-0.38974 -0.10476,-0.16664 -7.1e-4,-0.4312 0.18824,-0.47863 0.12511,-0.0314 0.28688,0.0192 0.63615,0.19889 0.46807,0.24085 0.46876,0.24098 1.05363,0.20227 l 0.58525,-0.0387 -0.2486,0.21978 c -0.13672,0.12088 -0.35104,0.24824 -0.47625,0.28302 -0.25964,0.0721 -0.76747,0.0736 -1.06329,0.003 z m 6.22937,-0.003 c -0.10684,-0.0333 -0.30687,-0.16008 -0.4445,-0.28174 l -0.25023,-0.2212 0.58525,0.0387 c 0.58487,0.0387 0.58556,0.0386 1.05363,-0.20227 0.5386,-0.27713 0.77449,-0.27411 0.846,0.0108 0.055,0.21893 -0.025,0.33757 -0.35011,0.51926 -0.30002,0.16769 -1.09733,0.2432 -1.44004,0.13638 z m -3.67566,-0.51419 c 0.46174,-0.51976 1.75362,-0.51976 2.21536,0 l 0.12342,0.13894 -0.28217,-0.0481 c -0.1552,-0.0264 -0.58222,-0.0481 -0.94893,-0.0481 -0.36671,0 -0.79373,0.0216 -0.94893,0.0481 l -0.28217,0.0481 0.12342,-0.13893 z m -1.83325,-0.0581 c -0.25072,-0.0753 -0.36107,-0.18168 -0.36107,-0.3482 0,-0.26041 0.13047,-0.30018 0.8235,-0.25105 0.53046,0.0376 0.68799,0.0266 0.9276,-0.0649 0.15874,-0.0606 0.30216,-0.0967 0.31871,-0.0801 0.0165,0.0165 -0.12612,0.17286 -0.31704,0.34735 -0.44939,0.41072 -0.90906,0.54183 -1.3917,0.39696 z m 5.08165,-0.009 c -0.22588,-0.0632 -0.97464,-0.66932 -0.90853,-0.73543 0.0165,-0.0165 0.15997,0.0195 0.31871,0.0801 0.23961,0.0915 0.39714,0.10254 0.9276,0.0649 0.69669,-0.0494 0.8235,-0.01 0.8235,0.25736 0,0.0873 -0.0627,0.19062 -0.15072,0.24827 -0.195,0.12777 -0.70425,0.17047 -1.01056,0.0847 z m -2.69519,-0.55034 c 0.0384,-0.0462 0.17879,-0.13965 0.3121,-0.20766 0.24018,-0.12253 0.24456,-0.12253 0.48474,0 0.47993,0.24484 0.441,0.29168 -0.24237,0.29168 -0.51055,0 -0.61151,-0.0153 -0.55447,-0.084 z"
       id="path138"
       inkscape:connector-curvature="0" />
  </g>
</svg>
